<?xml version="1.0" encoding="UTF-8"?>
<svg version="1.1" xmlns="http://www.w3.org/2000/svg" width="246" height="345">
<path d="M0 0 C81.18 0 162.36 0 246 0 C246 113.85 246 227.7 246 345 C164.82 345 83.64 345 0 345 C0 231.15 0 117.3 0 0 Z " fill="#464D51" transform="translate(0,0)"/>
<path d="M0 0 C81.18 0 162.36 0 246 0 C246 70.62 246 141.24 246 214 C209.7 214 173.4 214 136 214 C136 211.36 136 208.72 136 206 C138.31 206 140.62 206 143 206 C143 202.37 143 198.74 143 195 C140.69 195.33 138.38 195.66 136 196 C136 195.01 136 194.02 136 193 C139.63 192.67 143.26 192.34 147 192 C147 190.02 147 188.04 147 186 C146.18273437 186.16371094 145.36546875 186.32742187 144.5234375 186.49609375 C140.51231824 187.06974606 136.66751879 187.11001604 132.625 187.0625 C131.88894531 187.05798828 131.15289062 187.05347656 130.39453125 187.04882812 C128.59631842 187.03715142 126.79814803 187.01922011 125 187 C125.63808594 186.31550781 126.27617188 185.63101563 126.93359375 184.92578125 C130.53562292 179.82574373 130.42576883 174.0912412 130 168 C128.43945343 163.87745374 126.08182511 161.08182511 123 158 C123 157.01 123 156.02 123 155 C127.62 155.33 132.24 155.66 137 156 C137 165.57 137 175.14 137 185 C141.62 184.67 146.24 184.34 151 184 C151.33 174.76 151.66 165.52 152 156 C153.98 156 155.96 156 158 156 C158 150.39 158 144.78 158 139 C154.7 139 151.4 139 148 139 C148.33 137.35 148.66 135.7 149 134 C151.97 134 154.94 134 158 134 C158 135.32 158 136.64 158 138 C158.66 138 159.32 138 160 138 C160 153.18 160 168.36 160 184 C161.98 183.34 163.96 182.68 166 182 C168.1340332 181.62109375 168.1340332 181.62109375 170.05078125 181.4375 C171.09782227 181.32535156 171.09782227 181.32535156 172.16601562 181.2109375 C173.61635089 181.06841138 175.066879 180.9278362 176.51757812 180.7890625 C178.35318726 180.59061827 180.17864622 180.30250859 182 180 C182.33 179.34 182.66 178.68 183 178 C183.66 178 184.32 178 185 178 C185 178.99 185 179.98 185 181 C186.01320312 180.7834375 186.01320312 180.7834375 187.046875 180.5625 C187.93890625 180.376875 188.8309375 180.19125 189.75 180 C190.63171875 179.814375 191.5134375 179.62875 192.421875 179.4375 C195 179 195 179 199 179 C199.66 176.69 200.32 174.38 201 172 C203 174 203 174 204 177 C208.62 177 213.24 177 218 177 C217.195625 175.1025 216.39125 173.205 215.5625 171.25 C212.30745342 163.57142857 212.30745342 163.57142857 212 161 C212.66 160.01 213.32 159.02 214 158 C214.4087199 153.74931302 214.31300337 149.53361749 212.53125 145.578125 C208.9182132 141.85448503 202.90186996 141.12582177 198 140 C198 139.67 198 139.34 198 139 C201.96 139 205.92 139 210 139 C210.33 134.05 210.66 129.1 211 124 C212.32 124 213.64 124 215 124 C215.20818303 129.93321622 214.73620116 132.92329596 213 139 C218.28 139 223.56 139 229 139 C229.33 125.14 229.66 111.28 230 97 C225.38 97 220.76 97 216 97 C216 101.29 216 105.58 216 110 C214.68 110 213.36 110 212 110 C212 105.38 212 100.76 212 96 C207.41015625 96.04882812 207.41015625 96.04882812 202.8203125 96.09765625 C200 96 200 96 198 95 C198 98.96 198 102.92 198 107 C197.67 107 197.34 107 197 107 C196.34 102.71 195.68 98.42 195 94 C196.98 94 198.96 94 201 94 C200.67386719 93.09378906 200.34773437 92.18757813 200.01171875 91.25390625 C199.57472656 90.03574219 199.13773438 88.81757812 198.6875 87.5625 C198.04361328 85.77005859 198.04361328 85.77005859 197.38671875 83.94140625 C197.17104248 83.30662354 196.95536621 82.67184082 196.7331543 82.01782227 C196.01540907 79.95495888 196.01540907 79.95495888 195.01098633 77.85522461 C193.59431185 74.52412517 192.70101993 72.18304669 193.60668945 68.59936523 C194.70813649 66.11048228 195.9467433 63.79125091 197.3125 61.4375 C197.75529297 60.61958984 198.19808594 59.80167969 198.65429688 58.95898438 C199.74351742 56.95622401 200.85796038 54.97296199 202 53 C192.99496059 52.47787894 192.99496059 52.47787894 185.11328125 55.625 C183.88509889 57.73866089 183.88509889 57.73866089 183 61 C182.67 61 182.34 61 182 61 C182 58.36 182 55.72 182 53 C177.05 53 172.1 53 167 53 C167 54.98 167 56.96 167 59 C166.67 59 166.34 59 166 59 C166 56.69 166 54.38 166 52 C156.59328343 53.63470379 149.52508134 55.37692098 143.40625 62.98046875 C138.48128808 70.92881007 139.5596185 80.01621749 140 89 C136.81923518 85.81923518 136.71346338 81.75713911 135.875 77.4375 C135.60236328 76.13329102 135.60236328 76.13329102 135.32421875 74.80273438 C134.19256481 69.09766696 133.82291859 63.81417298 134 58 C126.575 58.99 126.575 58.99 119 60 C118.57589844 61.258125 118.15179688 62.51625 117.71484375 63.8125 C113.96801935 74.79342025 109.84436589 85.45724626 105 96 C103.875 92.25 103.875 92.25 105 90 C101.37 90.99 97.74 91.98 94 93 C92.24437587 84.22187933 91.88222612 74.23554776 96 66 C95.30132812 66.28875 94.60265625 66.5775 93.8828125 66.875 C92.97273438 67.24625 92.06265625 67.6175 91.125 68 C90.22007813 68.37125 89.31515625 68.7425 88.3828125 69.125 C86 70 86 70 84 70 C83.80664062 70.85722656 83.61328125 71.71445313 83.4140625 72.59765625 C83.15367188 73.74105469 82.89328125 74.88445312 82.625 76.0625 C82.24214844 77.75052734 82.24214844 77.75052734 81.8515625 79.47265625 C81.29124948 81.79358586 80.65446452 84.0975833 79.9375 86.375 C78.84307288 90.60678485 78.55392951 94.5872763 78.375 98.9375 C78.33632812 99.71673828 78.29765625 100.49597656 78.2578125 101.29882812 C78.16455873 103.19887379 78.08124038 105.09940278 78 107 C83.94 106.505 83.94 106.505 90 106 C86.28343453 109.71656547 80.52022996 109.9466586 75.4375 110.125 C74.633125 110.08375 73.82875 110.0425 73 110 C73.02320312 110.58007812 73.04640625 111.16015625 73.0703125 111.7578125 C73.08835937 112.53898437 73.10640625 113.32015625 73.125 114.125 C73.14820312 114.89070313 73.17140625 115.65640625 73.1953125 116.4453125 C73 119 73 119 72.0625 121.65625 C70.62297466 126.18652092 70.28572501 130.655029 69.875 135.375 C69.78863281 136.30183594 69.70226562 137.22867188 69.61328125 138.18359375 C69.40251115 140.45522701 69.19826819 142.72724727 69 145 C66.75627684 141.63441526 66.01721393 138.49550034 65.125 134.625 C63.37501312 127.3105233 61.30542315 120.16152724 59 113 C57.58249437 113.11509661 56.16598831 113.24253658 54.75 113.375 C53.56664063 113.47941406 53.56664063 113.47941406 52.359375 113.5859375 C48.64989619 114.23693875 46.68766895 115.03093199 44.47265625 118.15234375 C39.79099107 127.3989567 37.37538166 136.95192535 35 147 C34.67 147 34.34 147 34 147 C33.5978125 145.1746875 33.5978125 145.1746875 33.1875 143.3125 C32.49947633 140.49060581 31.83504816 138.72508027 30.3125 136.1875 C29.879375 135.465625 29.44625 134.74375 29 134 C29.33 133.01 29.66 132.02 30 131 C30.99 130.67 31.98 130.34 33 130 C34.02700444 127.67108904 34.02700444 127.67108904 34.6875 124.9375 C35.06455078 123.55884766 35.06455078 123.55884766 35.44921875 122.15234375 C35.63097656 121.44207031 35.81273437 120.73179688 36 120 C27.1134043 120.99915566 27.1134043 120.99915566 20 126 C17.90386017 129.34049138 17.73028224 132.02845486 17.75 135.9375 C17.74484375 136.95714844 17.7396875 137.97679687 17.734375 139.02734375 C18.00476465 142.05332204 18.72758864 144.25825647 20 147 C18.35 147.33 16.7 147.66 15 148 C14.01 152.29 13.02 156.58 12 161 C20.47581555 161.47381438 20.47581555 161.47381438 28 158 C30.28239171 155.07678035 30.28239171 155.07678035 32 152 C32.66 151.01 33.32 150.02 34 149 C33.125 154.75 33.125 154.75 32 157 C32.66 157 33.32 157 34 157 C34.25201486 161.52300361 33.66776831 164.34850292 31.625 168.375 C27.37388577 177.30954517 26.61834403 185.10649547 26 195 C29.96 194.67 33.92 194.34 38 194 C38.99 190.04 39.98 186.08 41 182 C43.92824652 184.92824652 45.27239967 187.2979993 47 191 C47.42152344 190.4225 47.84304687 189.845 48.27734375 189.25 C48.82519531 188.5075 49.37304688 187.765 49.9375 187 C50.48277344 186.2575 51.02804688 185.515 51.58984375 184.75 C52.05519531 184.1725 52.52054688 183.595 53 183 C53.33 183 53.66 183 54 183 C53.67 185.31 53.34 187.62 53 190 C53.69222656 189.77183594 54.38445313 189.54367188 55.09765625 189.30859375 C63.82960005 186.74308193 71.06262748 186.9866094 80 188 C80.66 186.68 81.32 185.36 82 184 C84.97 184 87.94 184 91 184 C91 185.32 91 186.64 91 188 C95.62 188 100.24 188 105 188 C105 188.33 105 188.66 105 189 C104.20335938 189.17015625 103.40671875 189.3403125 102.5859375 189.515625 C94.802194 191.29584858 88.97853017 192.9429931 84.125 199.625 C81.27182673 204.68855208 81.27182673 204.68855208 82 214 C54.94 214 27.88 214 0 214 C0 143.38 0 72.76 0 0 Z " fill="#001523" transform="translate(0,0)"/>
<path d="M0 0 C0.33 0.33 0.66 0.66 1 1 C3.53049402 1.07313567 6.03304837 1.09247527 8.5625 1.0625 C9.27341797 1.05798828 9.98433594 1.05347656 10.71679688 1.04882812 C12.47790013 1.03700864 14.23896036 1.01907263 16 1 C16.33 3.31 16.66 5.62 17 8 C18.32 5.69 19.64 3.38 21 1 C25.95 1 30.9 1 36 1 C34.46465854 5.60602439 33.06139948 8.73594158 30.6875 12.8125 C28.54067098 16.92486052 28.54067098 16.92486052 28.13671875 21.42578125 C28.91567308 23.74615843 29.88279531 25.8227854 31 28 C31.74491291 29.76426741 32.47402077 31.53528811 33.1875 33.3125 C33.53167969 34.11300781 33.87585938 34.91351563 34.23046875 35.73828125 C35 38 35 38 35 42 C32.525 42.495 32.525 42.495 30 43 C30.33 45.31 30.66 47.62 31 50 C31.33 47.69 31.66 45.38 32 43 C38.93 43.495 38.93 43.495 46 44 C46 48.62 46 53.24 46 58 C47.32 58 48.64 58 50 58 C50 53.71 50 49.42 50 45 C54.62 45 59.24 45 64 45 C64.02484561 49.8563602 64.04292865 54.71268284 64.05493164 59.5690918 C64.05993919 61.21883794 64.06674716 62.8685797 64.07543945 64.51831055 C64.08766254 66.89893685 64.09326422 69.27950413 64.09765625 71.66015625 C64.10281754 72.38960953 64.10797882 73.11906281 64.11329651 73.87062073 C64.11377714 78.32621753 63.89243465 82.61457263 63 87 C60.26922124 88.36538938 58.04439633 88.13231826 55 88.125 C53.39125 88.12886719 53.39125 88.12886719 51.75 88.1328125 C49 88 49 88 47 87 C47.66 82.05 48.32 77.1 49 72 C47.68 72 46.36 72 45 72 C45.01160156 72.74765625 45.02320313 73.4953125 45.03515625 74.265625 C45.04417969 75.25046875 45.05320313 76.2353125 45.0625 77.25 C45.07410156 78.22453125 45.08570313 79.1990625 45.09765625 80.203125 C45.01195577 82.65758678 44.70706066 84.66168914 44 87 C40.535 87.495 40.535 87.495 37 88 C37.92232422 88.31130859 37.92232422 88.31130859 38.86328125 88.62890625 C43.25350342 90.30237212 45.51625448 91.22307538 48.0625 95.3125 C49.02628816 99.10340008 49.37410578 102.10929987 49 106 C48.34 106.99 47.68 107.98 47 109 C47.50470657 112.90146186 49.49192274 116.35839924 51.16015625 119.87890625 C52 122 52 122 52 125 C49.73213358 125.27561917 47.46041721 125.51971457 45.1875 125.75 C43.92292969 125.88921875 42.65835938 126.0284375 41.35546875 126.171875 C38 126 38 126 36.05078125 124.015625 C35.70402344 123.35046875 35.35726562 122.6853125 35 122 C34.855625 122.78375 34.71125 123.5675 34.5625 124.375 C33 127 33 127 31.0390625 127.77734375 C27.02379287 128.69111774 23.12976041 129.26643616 19 129 C19 128.01 19 127.02 19 126 C18.34 126 17.68 126 17 126 C16.67 126.99 16.34 127.98 16 129 C8.74 129.99 1.48 130.98 -6 132 C-6.7972676 116.55294027 -7.55605429 101.42160943 -6 86 C-6.66 86 -7.32 86 -8 86 C-8 84.68 -8 83.36 -8 82 C-12.455 82.495 -12.455 82.495 -17 83 C-17 83.99 -17 84.98 -17 86 C-14.03 86.33 -11.06 86.66 -8 87 C-8 92.61 -8 98.22 -8 104 C-9.98 104 -11.96 104 -14 104 C-13.99476318 104.84296631 -13.98952637 105.68593262 -13.98413086 106.55444336 C-13.96712174 109.67227936 -13.95456594 112.79009177 -13.94506836 115.90795898 C-13.94002943 117.25920386 -13.93319823 118.61044326 -13.92456055 119.96166992 C-13.91247581 121.90020434 -13.90730172 123.838778 -13.90234375 125.77734375 C-13.89710693 126.94515381 -13.89187012 128.11296387 -13.88647461 129.31616211 C-14 132 -14 132 -15 133 C-19.62 133 -24.24 133 -29 133 C-29 123.43 -29 113.86 -29 104 C-32.63 104 -36.26 104 -40 104 C-41.485 103.505 -41.485 103.505 -43 103 C-40.99984249 106.42973444 -40.99984249 106.42973444 -38.65234375 109.62109375 C-34.35495086 115.18735474 -34.68476659 119.98938302 -35.21484375 126.828125 C-36 130 -36 130 -40 134 C-33.07 134 -26.14 134 -19 134 C-19 135.98 -19 137.96 -19 140 C-21.40545638 141.20272819 -22.94996953 141.10071472 -25.625 141.0625 C-26.44226563 141.05347656 -27.25953125 141.04445312 -28.1015625 141.03515625 C-29.04128906 141.01775391 -29.04128906 141.01775391 -30 141 C-29.67 141.66 -29.34 142.32 -29 143 C-27.02 143 -25.04 143 -23 143 C-23 146.63 -23 150.26 -23 154 C-25.31 154 -27.62 154 -30 154 C-30 156.64 -30 159.28 -30 162 C-34.62 162 -39.24 162 -44 162 C-44.66 159.36 -45.32 156.72 -46 154 C-47.32 156.64 -48.64 159.28 -50 162 C-61.22 162 -72.44 162 -84 162 C-85.41099127 157.76702618 -85.94400487 154.09952951 -84.05859375 149.90625 C-79.73766503 142.64600613 -74.86020323 139.66447567 -67 137 C-69.64 136.67 -72.28 136.34 -75 136 C-75 134.68 -75 133.36 -75 132 C-76.45945288 132.08708669 -77.91765868 132.19526907 -79.375 132.3125 C-80.18710938 132.37050781 -80.99921875 132.42851562 -81.8359375 132.48828125 C-84.37921338 132.82990528 -84.37921338 132.82990528 -86 136 C-88.55467971 136.17192059 -90.89438305 136.18148988 -93.4375 136.0625 C-100.19420481 135.88565484 -106.39454649 136.43260425 -113 138 C-113 136.02 -113 134.04 -113 132 C-114.98 134.64 -116.96 137.28 -119 140 C-121.6465335 137.3534665 -122.59941997 134.43778736 -124 131 C-124.20496094 131.78246094 -124.40992187 132.56492188 -124.62109375 133.37109375 C-124.89050781 134.38300781 -125.15992187 135.39492187 -125.4375 136.4375 C-125.70433594 137.44683594 -125.97117187 138.45617187 -126.24609375 139.49609375 C-127 142 -127 142 -128 143 C-130.01964199 143.07244053 -132.04167124 143.08377188 -134.0625 143.0625 C-135.16722656 143.05347656 -136.27195313 143.04445312 -137.41015625 143.03515625 C-138.69212891 143.01775391 -138.69212891 143.01775391 -140 143 C-140.62286695 132.42856373 -139.19533527 123.35151202 -134.40625 113.83203125 C-132.92261629 110.84415781 -132.39236023 108.29582596 -132 105 C-132.66 105 -133.32 105 -134 105 C-134 104.01 -134 103.02 -134 102 C-134.721875 102.94875 -135.44375 103.8975 -136.1875 104.875 C-138.56382477 107.69730169 -140.32378566 109.12471087 -144 110 C-147.7316971 110.19301882 -150.45010155 110.18329948 -154 109 C-153.03791983 99.53954496 -153.03791983 99.53954496 -151 96 C-148.875 95.1875 -148.875 95.1875 -147 95 C-147.32226562 94.29746094 -147.64453125 93.59492188 -147.9765625 92.87109375 C-149.71767119 87.98668579 -149.56837942 83.11541475 -149 78 C-147.0171377 73.96345889 -144.83420139 71.3499944 -141 69 C-138.24921116 68.08307039 -136.64051087 67.89113917 -133.8125 67.9375 C-132.554375 67.958125 -131.29625 67.97875 -130 68 C-130.73913043 76.86956522 -130.73913043 76.86956522 -134 80 C-134.66 80 -135.32 80 -136 80 C-134.66306612 83.59943736 -133.00519395 86.73125918 -131 90 C-130.54560547 88.44152344 -130.54560547 88.44152344 -130.08203125 86.8515625 C-124.1369203 66.87551028 -124.1369203 66.87551028 -118.75 61.9375 C-114.88503863 60.61989953 -111.06100044 60.25657737 -107 60 C-102.83638988 68.02981951 -101.1853118 76.35219191 -99.41723633 85.14990234 C-98.98400945 87.21426125 -98.98400945 87.21426125 -98 90 C-97.81824219 88.26363281 -97.81824219 88.26363281 -97.6328125 86.4921875 C-97.46388684 84.95308708 -97.29459668 83.41402663 -97.125 81.875 C-97.04636719 81.11445313 -96.96773437 80.35390625 -96.88671875 79.5703125 C-96.38799482 75.12016047 -95.49477813 71.24324114 -94 67 C-93.73788562 65.38280371 -93.52332474 63.75657211 -93.375 62.125 C-93.189375 60.083125 -93.189375 60.083125 -93 58 C-86.07 56.515 -86.07 56.515 -79 55 C-81.97 55 -84.94 55 -88 55 C-88.53216081 45.6576214 -88.23092169 37.18206259 -85.6875 28.125 C-85.47456299 27.35881348 -85.26162598 26.59262695 -85.04223633 25.80322266 C-83.91775155 22.0800682 -82.97495639 19.51258097 -80 17 C-73.77777778 14 -73.77777778 14 -70 14 C-70.144375 14.66644531 -70.28875 15.33289063 -70.4375 16.01953125 C-72.06501055 24.10057319 -73.01901327 31.92394694 -71 40 C-67.7 39.34 -64.4 38.68 -61 38 C-61 39.32 -61 40.64 -61 42 C-60.71801758 41.29504395 -60.43603516 40.59008789 -60.14550781 39.86376953 C-55.76367188 28.90917969 -51.38183594 17.95458984 -47 7 C-46.01 6.835 -45.02 6.67 -44 6.5 C-43.443125 6.4071875 -42.88625 6.314375 -42.3125 6.21875 C-38.87062201 5.89316695 -35.45667598 5.97119437 -32 6 C-31.91959473 6.59949463 -31.83918945 7.19898926 -31.75634766 7.81665039 C-31.38453257 10.56601347 -31.00482696 13.31423278 -30.625 16.0625 C-30.43550781 17.47692383 -30.43550781 17.47692383 -30.2421875 18.91992188 C-29.51883702 24.10996155 -28.59315069 29.00581892 -27 34 C-27.05800781 33.03320312 -27.11601562 32.06640625 -27.17578125 31.0703125 C-27.50283351 21.63251858 -26.7767633 14.57091501 -20.42578125 7.1640625 C-14.90121285 1.88417196 -7.64495794 -0.76449579 0 0 Z " fill="#051527" transform="translate(166,52)"/>
<path d="M0 0 C81.18 0 162.36 0 246 0 C246 7.59 246 15.18 246 23 C164.82 23 83.64 23 0 23 C0 15.41 0 7.82 0 0 Z " fill="#001623" transform="translate(0,322)"/>
<path d="M0 0 C4.95 0 9.9 0 15 0 C15.33 17.16 15.66 34.32 16 52 C14.68 52 13.36 52 12 52 C11.67 50.35 11.34 48.7 11 47 C10.34 47 9.68 47 9 47 C9.33 48.32 9.66 49.64 10 51 C8.68 51 7.36 51 6 51 C4.08195815 51.15001445 2.16523314 51.31759684 0.25 51.5 C-1.22726563 51.63921875 -1.22726563 51.63921875 -2.734375 51.78125 C-3.85585938 51.88953125 -3.85585938 51.88953125 -5 52 C-7.29013653 48.5647952 -7.17842973 47.014669 -7 43 C-8.32 43.66 -9.64 44.32 -11 45 C-10.34 47.31 -9.68 49.62 -9 52 C-10.65 52 -12.3 52 -14 52 C-14.99 49.525 -14.99 49.525 -16 47 C-16.99 48.65 -17.98 50.3 -19 52 C-20.65 51.67 -22.3 51.34 -24 51 C-24 48.36 -24 45.72 -24 43 C-28.95 43.495 -28.95 43.495 -34 44 C-34 47.63 -34 51.26 -34 55 C-35.65 55.33 -37.3 55.66 -39 56 C-39 52.04 -39 48.08 -39 44 C-39.66 44 -40.32 44 -41 44 C-41.0825 44.94875 -41.165 45.8975 -41.25 46.875 C-42 50 -42 50 -43.6875 51.4375 C-46.75295997 52.18315243 -48.97086729 51.80776872 -52 51 C-53.38550197 48.22899606 -53.1877467 46.0665294 -53 43 C-52.34 42.01 -51.68 41.02 -51 40 C-52.65 40 -54.3 40 -56 40 C-56 41.32 -56 42.64 -56 44 C-58.31 44 -60.62 44 -63 44 C-62.505 47.465 -62.505 47.465 -62 51 C-63.65 51.33 -65.3 51.66 -67 52 C-67.99 49.03 -67.99 49.03 -69 46 C-71.31 46 -73.62 46 -76 46 C-75.67 46.99 -75.34 47.98 -75 49 C-73.35 49.33 -71.7 49.66 -70 50 C-73.20808915 52.1387261 -74.27698497 52.47730962 -78 52 C-80.29013653 48.5647952 -80.17842973 47.014669 -80 43 C-81.32 43 -82.64 43 -84 43 C-83.34 45.97 -82.68 48.94 -82 52 C-83.98 52 -85.96 52 -88 52 C-89.4783226 49.04335481 -89.06032783 46.25770263 -89 43 C-89.7425 43.04125 -90.485 43.0825 -91.25 43.125 C-94.08758952 42.99601866 -95.58773938 42.42948778 -98 41 C-95.28395285 43.87420123 -95.28395285 43.87420123 -92 46 C-92.875 50.875 -92.875 50.875 -94 52 C-96.18639453 52.07258946 -98.37500389 52.08373783 -100.5625 52.0625 C-102.35880859 52.04896484 -102.35880859 52.04896484 -104.19140625 52.03515625 C-105.11824219 52.02355469 -106.04507813 52.01195312 -107 52 C-107.33 50.35 -107.66 48.7 -108 47 C-108.66 47 -109.32 47 -110 47 C-109.67 48.32 -109.34 49.64 -109 51 C-110.32 51 -111.64 51 -113 51 C-113.495 48.525 -113.495 48.525 -114 46 C-112.02 46 -110.04 46 -108 46 C-108 45.01 -108 44.02 -108 43 C-109.98 43 -111.96 43 -114 43 C-114.99 40.69 -115.98 38.38 -117 36 C-117 41.28 -117 46.56 -117 52 C-118.65 51.67 -120.3 51.34 -122 51 C-122 47.04 -122 43.08 -122 39 C-122.66 39 -123.32 39 -124 39 C-123.98839844 39.77085937 -123.97679688 40.54171875 -123.96484375 41.3359375 C-123.95582031 42.33882813 -123.94679688 43.34171875 -123.9375 44.375 C-123.92589844 45.37273437 -123.91429688 46.37046875 -123.90234375 47.3984375 C-124 50 -124 50 -125 52 C-126.65 52 -128.3 52 -130 52 C-130 47.71 -130 43.42 -130 39 C-130.66 39 -131.32 39 -132 39 C-132 42.3 -132 45.6 -132 49 C-132.33 49 -132.66 49 -133 49 C-133.33 41.08 -133.66 33.16 -134 25 C-135.65 24.67 -137.3 24.34 -139 24 C-139.33 19.05 -139.66 14.1 -140 9 C-129.82142857 7.79464286 -129.82142857 7.79464286 -126 9 C-125.19339955 12.04715725 -124.98667379 13.93470158 -125.625 17.0625 C-126.2959965 20.01663414 -126.2959965 20.01663414 -124.6875 22.375 C-123.15034461 24.2312139 -123.15034461 24.2312139 -121 24 C-121.33 23.34 -121.66 22.68 -122 22 C-122.44720497 16.74534161 -122.44720497 16.74534161 -120.875 14.125 C-118.21965017 12.5317901 -116.03210482 12.79785968 -113 13 C-112.67 14.98 -112.34 16.96 -112 19 C-113.98 19 -115.96 19 -118 19 C-117.67 19.99 -117.34 20.98 -117 22 C-114.09926819 22.67801034 -114.09926819 22.67801034 -111 23 C-110.34 22.34 -109.68 21.68 -109 21 C-108.01 21 -107.02 21 -106 21 C-106.66 20.5875 -107.32 20.175 -108 19.75 C-108.66 19.1725 -109.32 18.595 -110 18 C-110 16.68 -110 15.36 -110 14 C-107.29120665 12.64560332 -104.99066732 12.93498549 -102 13 C-102.33 13.99 -102.66 14.98 -103 16 C-104.32 15.34 -105.64 14.68 -107 14 C-104.28395285 16.87420123 -104.28395285 16.87420123 -101 19 C-101.75 23.75 -101.75 23.75 -104 26 C-104.99 26 -105.98 26 -107 26 C-106.566875 26.84304687 -106.13375 27.68609375 -105.6875 28.5546875 C-105.130625 29.65039062 -104.57375 30.74609375 -104 31.875 C-103.443125 32.96554687 -102.88625 34.05609375 -102.3125 35.1796875 C-101 38 -101 38 -101 40 C-100.01 40 -99.02 40 -98 40 C-98.10828125 38.65808594 -98.10828125 38.65808594 -98.21875 37.2890625 C-98.65263898 31.63645329 -99.08207096 25.980105 -99.25 20.3125 C-99.27578125 19.54550781 -99.3015625 18.77851563 -99.328125 17.98828125 C-98.90196514 15.40595546 -98.08682414 14.53969856 -96 13 C-92.8125 12.8125 -92.8125 12.8125 -90 13 C-90 13.66 -90 14.32 -90 15 C-89.01 14.67 -88.02 14.34 -87 14 C-83.62100976 12.95134786 -80.53088009 12.843072 -77 13 C-75.37047268 14.62952732 -75.56513021 16.57163723 -75.3125 18.8125 C-75.15201172 20.12154297 -75.15201172 20.12154297 -74.98828125 21.45703125 C-75.00104084 24.22586307 -75.57648239 25.66019519 -77 28 C-78.98 28 -80.96 28 -83 28 C-83 29.32 -83 30.64 -83 32 C-79.37 32 -75.74 32 -72 32 C-72.33 34.31 -72.66 36.62 -73 39 C-72.34 39 -71.68 39 -71 39 C-70.87882812 38.40832031 -70.75765625 37.81664062 -70.6328125 37.20703125 C-69.73255357 32.96196415 -68.79543379 28.97560339 -67 25 C-68.65 25 -70.3 25 -72 25 C-72 19.72 -72 14.44 -72 9 C-72.99 8.505 -72.99 8.505 -74 8 C-72.35 8 -70.7 8 -69 8 C-68.505 10.475 -68.505 10.475 -68 13 C-65.03 12.505 -65.03 12.505 -62 12 C-61.01 8.7 -60.02 5.4 -59 2 C-53.72 2 -48.44 2 -43 2 C-41.8938995 5.29102779 -40.79007896 8.58279239 -39.6875 11.875 C-39.2244043 13.25171875 -39.2244043 13.25171875 -38.75195312 14.65625 C-36.71747423 20.73827113 -34.80412886 26.84572083 -33 33 C-32.01 33 -31.02 33 -30 33 C-29.24229215 28.88518795 -28.82844645 24.90659766 -28.68359375 20.7265625 C-28.64169922 19.57285156 -28.59980469 18.41914063 -28.55664062 17.23046875 C-28.51732422 16.04066406 -28.47800781 14.85085937 -28.4375 13.625 C-28.37272461 11.80548828 -28.37272461 11.80548828 -28.30664062 9.94921875 C-28.20094549 6.96626716 -28.10000567 3.98314775 -28 1 C-23.38 1 -18.76 1 -14 1 C-14 10.9 -14 20.8 -14 31 C-9.71 31 -5.42 31 -1 31 C-1.66 33.64 -2.32 36.28 -3 39 C-2.01 39 -1.02 39 0 39 C0 26.13 0 13.26 0 0 Z " fill="#6C6079" transform="translate(149,224)"/>
<path d="M0 0 C-0.144375 0.66644531 -0.28875 1.33289063 -0.4375 2.01953125 C-2.06501055 10.10057319 -3.01901327 17.92394694 -1 26 C2.3 25.34 5.6 24.68 9 24 C5.796875 34.890625 5.796875 34.890625 -0.25 38.25 C-0.8275 38.4975 -1.405 38.745 -2 39 C-1.05125 39.226875 -0.1025 39.45375 0.875 39.6875 C4 41 4 41 5.375 43.1875 C6.13730495 46.61787225 6.31863181 49.49505006 6 53 C5.46375 53.70125 4.9275 54.4025 4.375 55.125 C3.694375 56.053125 3.694375 56.053125 3 57 C3.66096786 59.65245602 3.66096786 59.65245602 5 62 C6.74103202 65.48206404 6.44222386 69.19302942 6 73 C4.10006136 77.27486194 2.73888368 78.64995902 -1.49609375 80.65625 C-6.51733155 82.42959199 -11.29568439 82.29792899 -16.5625 82.125 C-22.52670709 81.98087559 -28.08732135 82.04138502 -34 83 C-35.64485066 83.06056151 -37.29172957 83.08781955 -38.9375 83.0625 C-39.70964844 83.05347656 -40.48179688 83.04445313 -41.27734375 83.03515625 C-41.84582031 83.02355469 -42.41429687 83.01195312 -43 83 C-43 82.01 -43 81.02 -43 80 C-43.763125 80.33 -44.52625 80.66 -45.3125 81 C-48 82 -48 82 -51 82 C-51.06316406 82.60328125 -51.12632813 83.2065625 -51.19140625 83.828125 C-52.3428305 86.9208394 -53.99618184 87.38273015 -56.9375 88.75 C-57.83339844 89.17796875 -58.72929688 89.6059375 -59.65234375 90.046875 C-62 91 -62 91 -64 91 C-64 90.01 -64 89.02 -64 88 C-64.721875 88.94875 -65.44375 89.8975 -66.1875 90.875 C-68.56382477 93.69730169 -70.32378566 95.12471087 -74 96 C-77.7316971 96.19301882 -80.45010155 96.18329948 -84 95 C-83.03791983 85.53954496 -83.03791983 85.53954496 -81 82 C-78.875 81.1875 -78.875 81.1875 -77 81 C-77.32226562 80.29746094 -77.64453125 79.59492188 -77.9765625 78.87109375 C-79.71767119 73.98668579 -79.56837942 69.11541475 -79 64 C-77.0171377 59.96345889 -74.83420139 57.3499944 -71 55 C-68.24921116 54.08307039 -66.64051087 53.89113917 -63.8125 53.9375 C-62.554375 53.958125 -61.29625 53.97875 -60 54 C-60.73913043 62.86956522 -60.73913043 62.86956522 -64 66 C-64.66 66 -65.32 66 -66 66 C-64.66306612 69.59943736 -63.00519395 72.73125918 -61 76 C-60.54560547 74.44152344 -60.54560547 74.44152344 -60.08203125 72.8515625 C-54.1369203 52.87551028 -54.1369203 52.87551028 -48.75 47.9375 C-44.88503863 46.61989953 -41.06100044 46.25657737 -37 46 C-32.83638988 54.02981951 -31.1853118 62.35219191 -29.41723633 71.14990234 C-28.98400945 73.21426125 -28.98400945 73.21426125 -28 76 C-27.81824219 74.26363281 -27.81824219 74.26363281 -27.6328125 72.4921875 C-27.46388684 70.95308708 -27.29459668 69.41402663 -27.125 67.875 C-27.04636719 67.11445313 -26.96773437 66.35390625 -26.88671875 65.5703125 C-26.38799482 61.12016047 -25.49477813 57.24324114 -24 53 C-23.73788562 51.38280371 -23.52332474 49.75657211 -23.375 48.125 C-23.189375 46.083125 -23.189375 46.083125 -23 44 C-16.07 42.515 -16.07 42.515 -9 41 C-11.97 41 -14.94 41 -18 41 C-18.53216081 31.6576214 -18.23092169 23.18206259 -15.6875 14.125 C-15.47456299 13.35881348 -15.26162598 12.59262695 -15.04223633 11.80322266 C-13.91775155 8.0800682 -12.97495639 5.51258097 -10 3 C-3.77777778 0 -3.77777778 0 0 0 Z " fill="#60348D" transform="translate(96,66)"/>
<path d="M0 0 C4.95 0 9.9 0 15 0 C16.63556279 4.90668838 17.42712567 9.0148818 17.875 14.0625 C18.56033586 20.92781645 19.95980174 26.94785646 22.29296875 33.4609375 C23 36 23 36 22 39 C17.38 39 12.76 39 8 39 C8 37.68 8 36.36 8 35 C6.54054712 35.08708669 5.08234132 35.19526907 3.625 35.3125 C2.81289062 35.37050781 2.00078125 35.42851562 1.1640625 35.48828125 C-1.37921338 35.82990528 -1.37921338 35.82990528 -3 39 C-5.55467971 39.17192059 -7.89438305 39.18148988 -10.4375 39.0625 C-17.19420481 38.88565484 -23.39454649 39.43260425 -30 41 C-30 39.02 -30 37.04 -30 35 C-31.98 37.64 -33.96 40.28 -36 43 C-38.6465335 40.3534665 -39.59941997 37.43778736 -41 34 C-41.20496094 34.78246094 -41.40992188 35.56492188 -41.62109375 36.37109375 C-42.02521484 37.88896484 -42.02521484 37.88896484 -42.4375 39.4375 C-42.70433594 40.44683594 -42.97117187 41.45617187 -43.24609375 42.49609375 C-44 45 -44 45 -45 46 C-47.01964199 46.07244053 -49.04167124 46.08377188 -51.0625 46.0625 C-52.16722656 46.05347656 -53.27195312 46.04445312 -54.41015625 46.03515625 C-55.69212891 46.01775391 -55.69212891 46.01775391 -57 46 C-57.55952644 36.50359289 -56.30901147 28.89229467 -53 20 C-52.42185547 18.32744141 -52.42185547 18.32744141 -51.83203125 16.62109375 C-48.86178409 8.63314749 -48.86178409 8.63314749 -44.9375 5.75 C-42 5 -42 5 -38 5 C-37.855625 6.134375 -37.71125 7.26875 -37.5625 8.4375 C-37.38828522 11.80777201 -37.38828522 11.80777201 -36 13 C-34.02 9.37 -32.04 5.74 -30 2 C-26.7 2 -23.4 2 -20 2 C-18.0718157 9.39137316 -17.5860561 16.44249532 -17.375 24.0625 C-17.31699219 25.79016602 -17.31699219 25.79016602 -17.2578125 27.55273438 C-17.16434848 30.36833796 -17.07858748 33.1839486 -17 36 C-12.83408099 29.46789485 -9.54275367 22.99375618 -6.8125 15.75 C-6.15476995 14.03552559 -5.49466931 12.32195846 -4.83203125 10.609375 C-4.55077393 9.86655273 -4.2695166 9.12373047 -3.97973633 8.35839844 C-2.79589562 5.50868469 -1.38002517 2.76005033 0 0 Z " fill="#60348D" transform="translate(83,149)"/>
<path d="M0 0 C0.33 2.31 0.66 4.62 1 7 C1.33 4.69 1.66 2.38 2 0 C8.93 0.495 8.93 0.495 16 1 C16 5.62 16 10.24 16 15 C17.32 15 18.64 15 20 15 C20 10.71 20 6.42 20 2 C24.62 2 29.24 2 34 2 C34.02484561 6.8563602 34.04292865 11.71268284 34.05493164 16.5690918 C34.05993919 18.21883794 34.06674716 19.8685797 34.07543945 21.51831055 C34.08766254 23.89893685 34.09326422 26.27950413 34.09765625 28.66015625 C34.10281754 29.38960953 34.10797882 30.11906281 34.11329651 30.87062073 C34.11377714 35.32621753 33.89243465 39.61457263 33 44 C30.26922124 45.36538938 28.04439633 45.13231826 25 45.125 C23.39125 45.12886719 23.39125 45.12886719 21.75 45.1328125 C19 45 19 45 17 44 C17.66 39.05 18.32 34.1 19 29 C17.68 29 16.36 29 15 29 C15.01160156 29.74765625 15.02320313 30.4953125 15.03515625 31.265625 C15.04417969 32.25046875 15.05320313 33.2353125 15.0625 34.25 C15.07410156 35.22453125 15.08570313 36.1990625 15.09765625 37.203125 C15 40 15 40 14 44 C9.05 44 4.1 44 -1 44 C-0.01 34.43 0.98 24.86 2 15 C-0.64 14.67 -3.28 14.34 -6 14 C-5.97679687 15.17175781 -5.95359375 16.34351563 -5.9296875 17.55078125 C-5.81031839 26.31135473 -6.03586017 34.40688826 -8 43 C-12.62 43 -17.24 43 -22 43 C-21.34 33.76 -20.68 24.52 -20 15 C-22.31 15 -24.62 15 -27 15 C-26.0625 6.96428571 -26.0625 6.96428571 -25 3 C-16.51168642 0.43056454 -8.85406634 -0.38558031 0 0 Z " fill="#61348D" transform="translate(196,95)"/>
<path d="M0 0 C4.95 0 9.9 0 15 0 C15.33 17.16 15.66 34.32 16 52 C14.68 52 13.36 52 12 52 C11.67 50.35 11.34 48.7 11 47 C10.34 47 9.68 47 9 47 C9.495 48.98 9.495 48.98 10 51 C8.68 51 7.36 51 6 51 C4.08195815 51.15001445 2.16523314 51.31759684 0.25 51.5 C-0.73484375 51.5928125 -1.7196875 51.685625 -2.734375 51.78125 C-3.85585937 51.88953125 -3.85585937 51.88953125 -5 52 C-7.29013653 48.5647952 -7.17842973 47.014669 -7 43 C-8.32 43.66 -9.64 44.32 -11 45 C-10.34 47.31 -9.68 49.62 -9 52 C-10.65 52 -12.3 52 -14 52 C-14.66 50.35 -15.32 48.7 -16 47 C-17.485 49.475 -17.485 49.475 -19 52 C-20.65 51.67 -22.3 51.34 -24 51 C-24 48.36 -24 45.72 -24 43 C-25.65 43 -27.3 43 -29 43 C-29.19059703 28.98052946 -28.59775811 15.00461861 -28 1 C-23.38 1 -18.76 1 -14 1 C-14 10.9 -14 20.8 -14 31 C-9.71 31 -5.42 31 -1 31 C-1.66 33.64 -2.32 36.28 -3 39 C-2.01 39 -1.02 39 0 39 C0 26.13 0 13.26 0 0 Z " fill="#675975" transform="translate(149,224)"/>
<path d="M0 0 C0 1.98 0 3.96 0 6 C-2.40545638 7.20272819 -3.94996953 7.10071472 -6.625 7.0625 C-7.85089844 7.04896484 -7.85089844 7.04896484 -9.1015625 7.03515625 C-9.72804687 7.02355469 -10.35453125 7.01195312 -11 7 C-10.505 7.99 -10.505 7.99 -10 9 C-8.02 9 -6.04 9 -4 9 C-4 12.63 -4 16.26 -4 20 C-6.31 20 -8.62 20 -11 20 C-11 22.64 -11 25.28 -11 28 C-15.62 28 -20.24 28 -25 28 C-25.66 25.36 -26.32 22.72 -27 20 C-28.32 22.64 -29.64 25.28 -31 28 C-42.22 28 -53.44 28 -65 28 C-66.41099127 23.76702618 -66.94400487 20.09952951 -65.05859375 15.90625 C-61.84110876 10.50006832 -57.94425996 6.34982471 -52 4 C-49.36442304 3.75469738 -46.88420725 3.61921923 -44.25 3.625 C-43.17854736 3.62632935 -43.17854736 3.62632935 -42.08544922 3.62768555 C-36.28737772 3.75798672 -32.71712278 4.69801405 -28 8 C-27.34 8.99 -26.68 9.98 -26 11 C-25.34 8.03 -24.68 5.06 -24 2 C-21.12543208 1.66252452 -18.25043941 1.32989537 -15.375 1 C-14.16263672 0.85691406 -14.16263672 0.85691406 -12.92578125 0.7109375 C-8.59026261 0.21746383 -4.37262689 -0.11320717 0 0 Z " fill="#61348E" transform="translate(147,186)"/>
<path d="M0 0 C4.95 0 9.9 0 15 0 C15.33 2.31 15.66 4.62 16 7 C17.32 4.69 18.64 2.38 20 0 C24.95 0 29.9 0 35 0 C33.46465854 4.60602439 32.06139948 7.73594158 29.6875 11.8125 C27.54067098 15.92486052 27.54067098 15.92486052 27.13671875 20.42578125 C27.91567308 22.74615843 28.88279531 24.8227854 30 27 C30.74491291 28.76426741 31.47402077 30.53528811 32.1875 32.3125 C32.53167969 33.11300781 32.87585938 33.91351563 33.23046875 34.73828125 C34 37 34 37 34 41 C28.72 41 23.44 41 18 41 C17.34 39.35 16.68 37.7 16 36 C15.67 37.98 15.34 39.96 15 42 C9.34289852 43.88570049 6.52530629 44 0 44 C0 29.48 0 14.96 0 0 Z " fill="#61348E" transform="translate(167,53)"/>
<path d="M0 0 C3.54116749 3.35479025 4.4648746 5.44129128 4.6875 10.25 C4.61516221 13.77482321 3.93420313 15.69079687 1.375 18.25 C2.59507944 20.9405528 2.59507944 20.9405528 4.375 23.25 C4.7586836 28.23788683 4.56406168 31.31682392 1.375 35.25 C-6.40275793 42.03060948 -16.75888359 42.47033511 -26.625 42.25 C-26.7350174 28.2100871 -26.70370346 14.25388241 -25.625 0.25 C-7.0328132 -4.35691354 -7.0328132 -4.35691354 0 0 Z " fill="#60338D" transform="translate(129.625,102.75)"/>
<path d="M0 0 C0.80660045 3.04715725 1.01332621 4.93470158 0.375 8.0625 C-0.2959965 11.01663414 -0.2959965 11.01663414 1.3125 13.375 C2.84965539 15.2312139 2.84965539 15.2312139 5 15 C4.67 14.34 4.34 13.68 4 13 C3.55279503 7.74534161 3.55279503 7.74534161 5.125 5.125 C7.78034983 3.5317901 9.96789518 3.79785968 13 4 C13.33 5.98 13.66 7.96 14 10 C12.02 10 10.04 10 8 10 C8.33 10.99 8.66 11.98 9 13 C11.90073181 13.67801034 11.90073181 13.67801034 15 14 C15.66 13.34 16.32 12.68 17 12 C17.99 12 18.98 12 20 12 C19.34 11.5875 18.68 11.175 18 10.75 C17.01 9.88375 17.01 9.88375 16 9 C16 7.68 16 6.36 16 5 C18.70879335 3.64560332 21.00933268 3.93498549 24 4 C23.67 4.99 23.34 5.98 23 7 C21.68 6.34 20.36 5.68 19 5 C21.71604715 7.87420123 21.71604715 7.87420123 25 10 C24.25 14.75 24.25 14.75 22 17 C21.01 17 20.02 17 19 17 C19.433125 17.84304687 19.86625 18.68609375 20.3125 19.5546875 C20.869375 20.65039062 21.42625 21.74609375 22 22.875 C22.556875 23.96554687 23.11375 25.05609375 23.6875 26.1796875 C25 29 25 29 25 31 C27.64 31 30.28 31 33 31 C32.67 31.99 32.34 32.98 32 34 C30.68 33.34 29.36 32.68 28 32 C30.71604715 34.87420123 30.71604715 34.87420123 34 37 C33.125 41.875 33.125 41.875 32 43 C29.81360547 43.07258946 27.62499611 43.08373783 25.4375 43.0625 C23.64119141 43.04896484 23.64119141 43.04896484 21.80859375 43.03515625 C20.88175781 43.02355469 19.95492187 43.01195312 19 43 C18.67 41.35 18.34 39.7 18 38 C17.34 38 16.68 38 16 38 C16.33 39.32 16.66 40.64 17 42 C15.68 42 14.36 42 13 42 C12.505 39.525 12.505 39.525 12 37 C13.98 37 15.96 37 18 37 C18 36.01 18 35.02 18 34 C16.02 34 14.04 34 12 34 C11.01 31.69 10.02 29.38 9 27 C9 32.28 9 37.56 9 43 C7.35 42.67 5.7 42.34 4 42 C4 38.04 4 34.08 4 30 C3.34 30 2.68 30 2 30 C2.01160156 30.77085937 2.02320312 31.54171875 2.03515625 32.3359375 C2.04417969 33.33882813 2.05320312 34.34171875 2.0625 35.375 C2.07410156 36.37273437 2.08570312 37.37046875 2.09765625 38.3984375 C2 41 2 41 1 43 C-0.65 43 -2.3 43 -4 43 C-4 38.71 -4 34.42 -4 30 C-4.66 30 -5.32 30 -6 30 C-6 33.3 -6 36.6 -6 40 C-6.33 40 -6.66 40 -7 40 C-7.33 32.08 -7.66 24.16 -8 16 C-9.65 15.67 -11.3 15.34 -13 15 C-13.33 10.05 -13.66 5.1 -14 0 C-8.42654907 -0.79620728 -5.2947172 -0.97249908 0 0 Z " fill="#695D77" transform="translate(23,233)"/>
<path d="M0 0 C1.39456452 0.00667256 2.78911118 0.01863093 4.18359375 0.03515625 C4.89451172 0.03966797 5.60542969 0.04417969 6.33789062 0.04882812 C8.09899388 0.06064761 9.86005411 0.07858362 11.62109375 0.09765625 C17.19067119 12.26870433 22.62109375 24.44260485 22.62109375 38.09765625 C17.67109375 38.09765625 12.72109375 38.09765625 7.62109375 38.09765625 C7.62109375 36.77765625 7.62109375 35.45765625 7.62109375 34.09765625 C6.18244435 34.15797698 4.74497473 34.24685758 3.30859375 34.34765625 C2.50808594 34.3940625 1.70757812 34.44046875 0.8828125 34.48828125 C-1.54968621 34.87499023 -1.54968621 34.87499023 -2.69140625 37.09765625 C-4.37890625 39.09765625 -4.37890625 39.09765625 -7.953125 39.70703125 C-9.32342175 39.77322916 -10.6948008 39.81948135 -12.06640625 39.84765625 C-13.11924805 39.89212891 -13.11924805 39.89212891 -14.19335938 39.9375 C-15.92126049 40.00802658 -17.65008945 40.05512693 -19.37890625 40.09765625 C-18.88261719 39.04191406 -18.38632813 37.98617187 -17.875 36.8984375 C-12.74607901 25.78344729 -8.65289168 14.53581614 -5.00805664 2.85327148 C-3.88573481 -0.27851597 -3.61580386 0.104503 0 0 Z " fill="#60348D" transform="translate(150.37890625,99.90234375)"/>
<path d="M0 0 C12.67241379 0 12.67241379 0 17.4375 0.75 C18.40558594 0.88921875 19.37367188 1.0284375 20.37109375 1.171875 C24.34294387 2.4230373 26.30284347 4.71026042 28.25 8.3125 C29.18879151 11.67650291 29.2575756 14.5227294 29 18 C28.34 18.99 27.68 19.98 27 21 C27.50470657 24.90146186 29.49192274 28.35839924 31.16015625 31.87890625 C32 34 32 34 32 37 C29.73213358 37.27561917 27.46041721 37.51971457 25.1875 37.75 C23.92292969 37.88921875 22.65835938 38.0284375 21.35546875 38.171875 C18 38 18 38 16.05078125 36.015625 C15.70402344 35.35046875 15.35726562 34.6853125 15 34 C14.7525 34.804375 14.505 35.60875 14.25 36.4375 C13.63125 37.7059375 13.63125 37.7059375 13 39 C9 40 9 40 0 40 C0 26.8 0 13.6 0 0 Z " fill="#5F338C" transform="translate(186,140)"/>
<path d="M0 0 C0.06469482 0.55236328 0.12938965 1.10472656 0.19604492 1.67382812 C1.68202552 13.99024761 3.95913247 25.26985577 8 37 C8.35385808 38.32803364 8.69902557 39.65899169 9 41 C6.37438891 41.08074203 3.75124324 41.1403623 1.125 41.1875 C0.37863281 41.21263672 -0.36773437 41.23777344 -1.13671875 41.26367188 C-3.3046875 41.29296875 -3.3046875 41.29296875 -7 41 C-7.66 40.01 -8.32 39.02 -9 38 C-12.56769552 37.26393501 -12.56769552 37.26393501 -16 37 C-16.99 39.475 -16.99 39.475 -18 42 C-22.62 42.33 -27.24 42.66 -32 43 C-31.34773438 41.46472656 -30.69546875 39.92945313 -30.0234375 38.34765625 C-25.6383843 27.96200394 -21.31535162 17.60375376 -17.71435547 6.91625977 C-16.08396401 2.08396401 -16.08396401 2.08396401 -15 1 C-9.92090448 0.06710491 -5.13500056 -0.03740375 0 0 Z " fill="#60348C" transform="translate(134,58)"/>
<path d="M0 0 C4.06243957 -0.05819473 8.12477146 -0.09366215 12.1875 -0.125 C13.33798828 -0.14175781 14.48847656 -0.15851563 15.67382812 -0.17578125 C16.78564453 -0.18222656 17.89746094 -0.18867187 19.04296875 -0.1953125 C20.06414795 -0.20578613 21.08532715 -0.21625977 22.13745117 -0.22705078 C25.12612167 0.01000368 27.29423369 0.74382898 30 2 C30.44759534 7.70684056 29.60644032 9.69553898 26 14 C26.35299567 15.88348883 26.35299567 15.88348883 27 18 C27.37631448 22.85590415 27.59886736 27.40302037 25.875 32 C21.18866111 36.99876148 15.47439852 37.56551942 8.9921875 38.52734375 C5.24631095 39.11905532 1.659654 40.01470854 -2 41 C-1.93433838 40.4652002 -1.86867676 39.93040039 -1.80102539 39.37939453 C-0.88709152 31.22700374 -0.6680008 23.06765701 -0.4375 14.875 C-0.39419844 13.42707378 -0.35058094 11.97915698 -0.30664062 10.53125 C-0.20078894 7.02093422 -0.09919761 3.51051087 0 0 Z " fill="#5F338B" transform="translate(50,72)"/>
<path d="M0 0 C8.58 0 17.16 0 26 0 C29 12 29 12 29 15 C26.36 15 23.72 15 21 15 C21 22.92 21 30.84 21 39 C21.66 39 22.32 39 23 39 C23 39.99 23 40.98 23 42 C22.34 42 21.68 42 21 42 C21.45822468 45.46941546 21.89131683 48.67395049 23 52 C21.02 52 19.04 52 17 52 C15.5216774 49.04335481 15.93967217 46.25770263 16 43 C15.01 43 14.02 43 13 43 C13 45.97 13 48.94 13 52 C11.35 51.67 9.7 51.34 8 51 C8 48.69 8 46.38 8 44 C7.34 44 6.68 44 6 44 C6 46.64 6 49.28 6 52 C4.68 52 3.36 52 2 52 C2 46.72 2 41.44 2 36 C1.34 35.67 0.68 35.34 0 35 C1.98 35 3.96 35 6 35 C6 28.4 6 21.8 6 15 C3.69 15 1.38 15 -1 15 C-0.67 10.05 -0.34 5.1 0 0 Z " fill="#655873" transform="translate(166,224)"/>
<path d="M0 0 C0 5.94 0 11.88 0 18 C-2.31 17.67 -4.62 17.34 -7 17 C-9.04588629 18.0039686 -9.04588629 18.0039686 -10 20 C-10.36146457 22.28330101 -10.36146457 22.28330101 -10.1875 24.6875 C-10.125625 26.110625 -10.06375 27.53375 -10 29 C-6.7 29 -3.4 29 0 29 C0 34.94 0 40.88 0 47 C-15.32707775 47 -15.32707775 47 -22.5546875 40.73046875 C-26.88391711 35.54709384 -26.56368645 29.23803426 -26.375 22.8046875 C-25.6776154 15.72913962 -22.86820441 10.45402403 -17.75 5.5625 C-12.33027674 1.38528971 -6.75261512 0 0 0 Z " fill="#61348E" transform="translate(165,52)"/>
<path d="M0 0 C0.91644287 0.00523682 1.83288574 0.01047363 2.77709961 0.01586914 C3.76645508 0.0190918 4.75581055 0.02231445 5.77514648 0.02563477 C6.81606445 0.03401367 7.85698242 0.04239258 8.92944336 0.05102539 C10.49662109 0.05779297 10.49662109 0.05779297 12.09545898 0.06469727 C14.6859779 0.07652612 17.27646758 0.0944622 19.86694336 0.11352539 C19.86694336 4.40352539 19.86694336 8.69352539 19.86694336 13.11352539 C16.89694336 13.11352539 13.92694336 13.11352539 10.86694336 13.11352539 C10.86694336 14.43352539 10.86694336 15.75352539 10.86694336 17.11352539 C12.84694336 17.11352539 14.82694336 17.11352539 16.86694336 17.11352539 C16.86694336 20.74352539 16.86694336 24.37352539 16.86694336 28.11352539 C15.21694336 28.11352539 13.56694336 28.11352539 11.86694336 28.11352539 C11.86694336 29.43352539 11.86694336 30.75352539 11.86694336 32.11352539 C15.16694336 32.11352539 18.46694336 32.11352539 21.86694336 32.11352539 C21.36895966 35.84840316 20.9920258 37.92590174 18.86694336 41.11352539 C16.62036133 41.72949219 16.62036133 41.72949219 13.85913086 42.06274414 C12.87299805 42.18842773 11.88686523 42.31411133 10.87084961 42.44360352 C9.83831055 42.56155273 8.80577148 42.67950195 7.74194336 42.80102539 C6.70166992 42.93057617 5.66139648 43.06012695 4.58959961 43.19360352 C2.01660233 43.51227749 -0.55727375 43.81836383 -3.13305664 44.11352539 C-4.82468291 12.39103385 -4.82468291 12.39103385 -3.13305664 1.11352539 C-2.13305664 0.11352539 -2.13305664 0.11352539 0 0 Z " fill="#5F348C" transform="translate(163.133056640625,139.886474609375)"/>
<path d="M0 0 C4.95 0 9.9 0 15 0 C13.55570648 4.33288056 12.28355049 7.29880687 10.02929688 11.1015625 C3.92601742 21.71406272 3.82323807 31.98018884 4 44 C-0.95 44 -5.9 44 -11 44 C-10.95617187 42.64390625 -10.91234375 41.2878125 -10.8671875 39.890625 C-10.76579572 25.69449186 -13.84955068 15.7686805 -21.09790039 3.6003418 C-22 2 -22 2 -22 1 C-17.05 1 -12.1 1 -7 1 C-6.01 2.98 -5.02 4.96 -4 7 C-2.68 4.69 -1.36 2.38 0 0 Z " fill="#645572" transform="translate(215,223)"/>
<path d="M0 0 C0 5.61 0 11.22 0 17 C-1.98 17 -3.96 17 -6 17 C-5.99214478 18.26444946 -5.99214478 18.26444946 -5.98413086 19.55444336 C-5.96712174 22.67227936 -5.95456594 25.79009177 -5.94506836 28.90795898 C-5.94002943 30.25920386 -5.93319823 31.61044326 -5.92456055 32.96166992 C-5.91247581 34.90020434 -5.90730172 36.838778 -5.90234375 38.77734375 C-5.89448853 40.52905884 -5.89448853 40.52905884 -5.88647461 42.31616211 C-6 45 -6 45 -7 46 C-11.62 46 -16.24 46 -21 46 C-21 36.43 -21 26.86 -21 17 C-23.31 17 -25.62 17 -28 17 C-27.4831651 12.00392933 -26.67849647 7.76256317 -25 3 C-22.3347536 2.49118023 -19.66821581 1.99279859 -17 1.5 C-15.88431641 1.28537109 -15.88431641 1.28537109 -14.74609375 1.06640625 C-14.00488281 0.93105469 -13.26367188 0.79570312 -12.5 0.65625 C-11.49453125 0.46772461 -11.49453125 0.46772461 -10.46875 0.27539062 C-6.99947776 -0.11160889 -3.49079053 0 0 0 Z " fill="#60348D" transform="translate(158,139)"/>
<path d="M0 0 C-0.66 3.96 -1.32 7.92 -2 12 C-4.97 11.505 -4.97 11.505 -8 11 C-5.93156941 14.48972066 -5.93156941 14.48972066 -3.6875 17.8671875 C-0.58891414 22.39182709 0.82197703 25.34890791 0 31 C-1.56394688 35.6136433 -3.19375409 38.9074252 -7 42 C-12.42635165 43.80878388 -18.33114562 43.05200784 -24 43 C-24 37.39 -24 31.78 -24 26 C-22.02 26.66 -20.04 27.32 -18 28 C-19.03047408 25.78051737 -19.91596964 24.08726229 -21.625 22.3125 C-23.79480456 18.66328323 -23.64693594 15.13320182 -23 11 C-17.65430729 0.50660319 -10.72677922 -0.1261974 0 0 Z " fill="#61348E" transform="translate(131,144)"/>
<path d="M0 0 C0 0.66 0 1.32 0 2 C0.99 1.67 1.98 1.34 3 1 C6.37899024 -0.04865214 9.46911991 -0.156928 13 0 C14.62952732 1.62952732 14.43486979 3.57163723 14.6875 5.8125 C14.79449219 6.68519531 14.90148437 7.55789062 15.01171875 8.45703125 C14.99895916 11.22586307 14.42351761 12.66019519 13 15 C11.02 15 9.04 15 7 15 C7 16.32 7 17.64 7 19 C10.63 19 14.26 19 18 19 C17.773125 20.093125 17.54625 21.18625 17.3125 22.3125 C17.209375 23.529375 17.10625 24.74625 17 26 C18.37514541 27.7087646 18.37514541 27.7087646 20 29 C20 30.32 20 31.64 20 33 C18.02 33 16.04 33 14 33 C14.33 33.99 14.66 34.98 15 36 C16.65 36.33 18.3 36.66 20 37 C16.79191085 39.1387261 15.72301503 39.47730962 12 39 C9.70986347 35.5647952 9.82157027 34.014669 10 30 C8.68 30 7.36 30 6 30 C6.66 32.97 7.32 35.94 8 39 C6.02 39 4.04 39 2 39 C0.5216774 36.04335481 0.93967217 33.25770263 1 30 C-0.32 30 -1.64 30 -3 30 C-3 29.01 -3 28.02 -3 27 C-4.65 27 -6.3 27 -8 27 C-8.52880073 20.44664814 -9.05524342 13.88553459 -9.25 7.3125 C-9.27578125 6.54550781 -9.3015625 5.77851563 -9.328125 4.98828125 C-8.44624137 -0.35551362 -4.65582757 -0.3103885 0 0 Z " fill="#695C77" transform="translate(59,237)"/>
<path d="M0 0 C4.95 0 9.9 0 15 0 C15.33 17.16 15.66 34.32 16 52 C14.68 52 13.36 52 12 52 C11.67 50.35 11.34 48.7 11 47 C10.34 47 9.68 47 9 47 C9.33 48.32 9.66 49.64 10 51 C5.8725485 51 2.084979 50.54466387 -2 50 C-2.33 48.68 -2.66 47.36 -3 46 C-1.02 46 0.96 46 3 46 C2.26656372 44.55258423 2.26656372 44.55258423 1.51831055 43.07592773 C-0.38181594 38.62051411 -0.38365817 34.57004804 -0.29296875 29.78515625 C-0.28872391 28.92941513 -0.28447906 28.07367401 -0.28010559 27.19200134 C-0.26342789 24.4818358 -0.22579705 21.77243752 -0.1875 19.0625 C-0.17243902 17.2155056 -0.1587531 15.36849944 -0.14648438 13.52148438 C-0.11356026 9.01403116 -0.06185469 4.50714528 0 0 Z " fill="#655773" transform="translate(149,224)"/>
<path d="M0 0 C0 1.98 0 3.96 0 6 C-2.40545638 7.20272819 -3.94996953 7.10071472 -6.625 7.0625 C-7.85089844 7.04896484 -7.85089844 7.04896484 -9.1015625 7.03515625 C-10.04128906 7.01775391 -10.04128906 7.01775391 -11 7 C-10.67 7.66 -10.34 8.32 -10 9 C-8.02 9 -6.04 9 -4 9 C-4 12.63 -4 16.26 -4 20 C-6.31 20 -8.62 20 -11 20 C-11 22.64 -11 25.28 -11 28 C-15.62 28 -20.24 28 -25 28 C-26.27604787 22.17803161 -27.25881098 16.95265252 -27 11 C-26.67 11 -26.34 11 -26 11 C-25.34 8.03 -24.68 5.06 -24 2 C-21.12543208 1.66252452 -18.25043941 1.32989537 -15.375 1 C-14.16263672 0.85691406 -14.16263672 0.85691406 -12.92578125 0.7109375 C-8.59026261 0.21746383 -4.37262689 -0.11320717 0 0 Z " fill="#60348D" transform="translate(147,186)"/>
<path d="M0 0 C0.33 0 0.66 0 1 0 C2.05619003 4.28297531 2.11702092 8.42985646 2.0625 12.8125 C2.05798828 13.50537109 2.05347656 14.19824219 2.04882812 14.91210938 C2.03713156 16.60811068 2.01919924 18.30406703 2 20 C1.34 20 0.68 20 0 20 C0.0407666 20.78125244 0.0815332 21.56250488 0.12353516 22.36743164 C0.30272657 25.9319664 0.46401727 29.49709839 0.625 33.0625 C0.68945312 34.29162109 0.75390625 35.52074219 0.8203125 36.78710938 C1.0867562 42.9652726 1.2592356 48.19669635 -1 54 C-2.85253906 53.89819336 -2.85253906 53.89819336 -5 53 C-6.28027344 50.25610352 -6.28027344 50.25610352 -7.359375 46.62890625 C-7.55347961 45.99137924 -7.74758423 45.35385223 -7.9475708 44.69700623 C-8.56426755 42.65654993 -9.1569244 40.60993143 -9.75 38.5625 C-10.16388112 37.18640191 -10.57922845 35.8107439 -10.99609375 34.43554688 C-14 24.42469347 -14 24.42469347 -14 22 C-17.96 22 -21.92 22 -26 22 C-26 21.34 -26 20.68 -26 20 C-25.31035156 19.92523438 -24.62070313 19.85046875 -23.91015625 19.7734375 C-16.85234728 18.78592513 -11.08664994 17.20494413 -6 12 C-3.61915192 8.14341964 -1.72730589 4.18617662 0 0 Z " fill="#454B50" transform="translate(120,204)"/>
<path d="M0 0 C5.94 0 11.88 0 18 0 C16.71953709 6.53297404 14.87333282 12.38880583 12.25 18.5 C11.89800537 19.32862549 11.54601074 20.15725098 11.18334961 21.01098633 C8.71197 26.69096117 6.0953318 32.28115748 2 37 C1.67 37 1.34 37 1 37 C0.67 24.79 0.34 12.58 0 0 Z " fill="#011523" transform="translate(64,149)"/>
<path d="M0 0 C0 0.66 0 1.32 0 2 C1.65 2 3.3 2 5 2 C4.01 2.66 3.02 3.32 2 4 C1.77892213 6.7885289 1.71892465 9.34653181 1.8125 12.125 C1.82603516 12.87910156 1.83957031 13.63320312 1.85351562 14.41015625 C1.88890015 16.27374127 1.94270833 18.13695978 2 20 C3.65 20 5.3 20 7 20 C6.52188823 21.77111844 6.0424722 23.54188483 5.5625 25.3125 C5.29566406 26.29863281 5.02882813 27.28476562 4.75390625 28.30078125 C4.21920575 30.21517526 3.62855462 32.11433615 3 34 C2.34 34 1.68 34 1 34 C1.33 31.69 1.66 29.38 2 27 C-1.63 27 -5.26 27 -9 27 C-9 25.68 -9 24.36 -9 23 C-7.02 23 -5.04 23 -3 23 C-1.5916196 18.14891195 -2.3378954 13.92900094 -3 9 C-5.97 9 -8.94 9 -12 9 C-12 12.3 -12 15.6 -12 19 C-12.33 19 -12.66 19 -13 19 C-13 16.03 -13 13.06 -13 10 C-13.99 10 -14.98 10 -16 10 C-16 9.34 -16 8.68 -16 8 C-18.64 8.66 -21.28 9.32 -24 10 C-23.67 7.03 -23.34 4.06 -23 1 C-20.10425766 0.83160792 -17.20842326 0.66522615 -14.3125 0.5 C-13.08756836 0.42845703 -13.08756836 0.42845703 -11.83789062 0.35546875 C-7.88646942 0.13150156 -3.95981243 -0.06451833 0 0 Z " fill="#6E637B" transform="translate(75,229)"/>
<path d="M0 0 C20.97196262 0.25129803 20.97196262 0.25129803 28 6 C28.33 6.99 28.66 7.98 29 9 C29.99 9 30.98 9 32 9 C31.67 10.32 31.34 11.64 31 13 C31 12.01 31 11.02 31 10 C28.36 10.33 25.72 10.66 23 11 C24.31224548 14.93673644 25.91910327 17.22719294 29 20 C27.35 19.67 25.7 19.34 24 19 C23.34 19.99 22.68 20.98 22 22 C22 21.34 22 20.68 22 20 C20.02 20 18.04 20 16 20 C15.67 18.68 15.34 17.36 15 16 C16.98 16 18.96 16 21 16 C20.67 14.02 20.34 12.04 20 10 C15.66770285 10.8604139 15.66770285 10.8604139 12 13 C11.92851801 14.35243917 11.91600546 15.70834367 11.9375 17.0625 C11.958125 18.361875 11.97875 19.66125 12 21 C11.01 21.33 10.02 21.66 9 22 C6.79677063 19.44425393 5.99493924 17.60054377 6.0234375 14.21875 C6.28589949 11.46644592 6.6023167 8.73586945 7 6 C4.69 5.67 2.38 5.34 0 5 C0 3.35 0 1.7 0 0 Z " fill="#6A5D77" transform="translate(16,227)"/>
<path d="M0 0 C10.89 0 21.78 0 33 0 C28.92702522 5.09121848 24.79815842 9.1759808 18 10 C12.36942489 10.36326291 8.85361481 10.1989734 4 7 C0 2.68421053 0 2.68421053 0 0 Z " fill="#635571" transform="translate(83,214)"/>
<path d="M0 0 C0.33 0 0.66 0 1 0 C1 4.62 1 9.24 1 14 C3.206875 13.896875 5.41375 13.79375 7.6875 13.6875 C9.54955078 13.60048828 9.54955078 13.60048828 11.44921875 13.51171875 C16.49590134 12.78441906 19.01947737 11.1395263 22.3125 7.3125 C22.869375 6.549375 23.42625 5.78625 24 5 C23.44855089 9.08072342 23.08669204 9.91330796 20 13 C22.97 13.33 25.94 13.66 29 14 C29 14.33 29 14.66 29 15 C25.04 15 21.08 15 17 15 C16.67 18.3 16.34 21.6 16 25 C14.60026042 23.76302083 13.20052083 22.52604167 11.80078125 21.2890625 C7.67943726 18.33885965 3.66893713 17.7034464 -1.3125 17.375 C-2.38113281 17.30023438 -3.44976562 17.22546875 -4.55078125 17.1484375 C-5.35902344 17.09945312 -6.16726562 17.05046875 -7 17 C-7 16.67 -7 16.34 -7 16 C-5.02 16 -3.04 16 -1 16 C-0.67 10.72 -0.34 5.44 0 0 Z " fill="#121A36" transform="translate(106,173)"/>
<path d="M0 0 C4.62 0 9.24 0 14 0 C14 2.97 14 5.94 14 9 C9.38 9 4.76 9 0 9 C0 6.03 0 3.06 0 0 Z " fill="#635571" transform="translate(122,214)"/>
<path d="M0 0 C0.66 0 1.32 0 2 0 C2 3.3 2 6.6 2 10 C3.98 10 5.96 10 8 10 C7.52188823 11.77111844 7.0424722 13.54188483 6.5625 15.3125 C6.29566406 16.29863281 6.02882813 17.28476562 5.75390625 18.30078125 C5.21920575 20.21517526 4.62855462 22.11433615 4 24 C3.34 24 2.68 24 2 24 C2.33 21.69 2.66 19.38 3 17 C-0.63 17 -4.26 17 -8 17 C-8 15.68 -8 14.36 -8 13 C-6.02 13 -4.04 13 -2 13 C-1.34 8.71 -0.68 4.42 0 0 Z " fill="#484D53" transform="translate(74,239)"/>
<path d="M0 0 C1.65 0 3.3 0 5 0 C5.33 1.65 5.66 3.3 6 5 C6.804375 4.979375 7.60875 4.95875 8.4375 4.9375 C11 5 11 5 12 6 C12.12524459 7.78837622 12.17573676 9.58228214 12.1875 11.375 C12.20167969 12.35210937 12.21585938 13.32921875 12.23046875 14.3359375 C12 17 12 17 10 20 C9.34 20 8.68 20 8 20 C8 15.71 8 11.42 8 7 C7.01 7 6.02 7 5 7 C5.33 9.97 5.66 12.94 6 16 C4.68 16.33 3.36 16.66 2 17 C2 11.72 2 6.44 2 1 C1.34 0.67 0.68 0.34 0 0 Z " fill="#FDFDFD" transform="translate(75,232)"/>
<path d="M0 0 C0.66 0.33 1.32 0.66 2 1 C2 3.97 2 6.94 2 10 C-2.32838824 12.16419412 -3.49742351 12.20068706 -8 11 C-9.39935013 8.20129973 -9.25265405 6.09501208 -9 3 C-6.77648059 -0.70586568 -4.03105606 -0.3430686 0 0 Z " fill="#EBECEC" transform="translate(105,264)"/>
<path d="M0 0 C2.31 0.33 4.62 0.66 7 1 C7.79096885 3.98810455 8.01333106 5.92890099 7.4375 9 C6.94451784 12.38044907 7.49414578 13.98829155 9 17 C7.35 17 5.7 17 4 17 C3.34 15.35 2.68 13.7 2 12 C1.34 12.66 0.68 13.32 0 14 C0 9.38 0 4.76 0 0 Z " fill="#FBFBFB" transform="translate(131,259)"/>
<path d="M0 0 C2.31 0.33 4.62 0.66 7 1 C7.79096885 3.98810455 8.01333106 5.92890099 7.4375 9 C6.94451784 12.38044907 7.49414578 13.98829155 9 17 C7.35 17 5.7 17 4 17 C3.34 15.35 2.68 13.7 2 12 C1.34 12.66 0.68 13.32 0 14 C0 9.38 0 4.76 0 0 Z " fill="#FBFBFC" transform="translate(16,232)"/>
<path d="M0 0 C2.375 0.6875 2.375 0.6875 3.375 1.6875 C3.66839895 4.6214895 3.87960337 6.83165963 3.375 9.6875 C0.875 12.6875 0.875 12.6875 -1.625 14.6875 C-2.615 14.3575 -3.605 14.0275 -4.625 13.6875 C-3.305 12.0375 -1.985 10.3875 -0.625 8.6875 C-1.615 9.0175 -2.605 9.3475 -3.625 9.6875 C-5.1875 8.5 -5.1875 8.5 -6.625 6.6875 C-6.5 4.125 -6.5 4.125 -5.625 1.6875 C-2.625 -0.3125 -2.625 -0.3125 0 0 Z " fill="#F7F7F8" transform="translate(33.625,288.3125)"/>
<path d="M0 0 C0 0.99 0 1.98 0 3 C1.46373047 2.89171875 1.46373047 2.89171875 2.95703125 2.78125 C4.86548828 2.64203125 4.86548828 2.64203125 6.8125 2.5 C8.70935547 2.36078125 8.70935547 2.36078125 10.64453125 2.21875 C12.75978517 2.08085219 14.88025592 2 17 2 C17.495 2.99 17.495 2.99 18 4 C12.39 4.66 6.78 5.32 1 6 C0.566875 8.35125 0.566875 8.35125 0.125 10.75 C-0.50532888 14.17178534 -1.30566082 16.9530371 -3 20 C-2.85904936 18.3745692 -2.71207913 16.74965949 -2.5625 15.125 C-2.48128906 14.22007812 -2.40007812 13.31515625 -2.31640625 12.3828125 C-2 10 -2 10 -1 8 C-2.75032844 8.14183696 -4.50025534 8.28863429 -6.25 8.4375 C-7.71179688 8.55931641 -7.71179688 8.55931641 -9.203125 8.68359375 C-11.92709047 8.90609989 -11.92709047 8.90609989 -14.171875 9.66015625 C-16 10 -16 10 -19 8 C-17.80503906 7.74476563 -17.80503906 7.74476563 -16.5859375 7.484375 C-10.15539265 6.01364211 -4.77605443 4.77605443 0 0 Z " fill="#141938" transform="translate(132,136)"/>
<path d="M0 0 C0.66 0.33 1.32 0.66 2 1 C1.79503906 1.74121094 1.59007813 2.48242188 1.37890625 3.24609375 C-0.99315735 12.51870599 -1.66883892 21.46484487 -2 31 C1.96 30.67 5.92 30.34 10 30 C6.28343453 33.71656547 0.52022996 33.9466586 -4.5625 34.125 C-5.366875 34.08375 -6.17125 34.0425 -7 34 C-7 31 -7 31 -5.5 28.5 C-3.27258198 23.3026913 -3.0445808 17.29678599 -4.6328125 11.81640625 C-4.75398438 11.21699219 -4.87515625 10.61757812 -5 10 C-3.69864875 8.30824337 -2.36244796 6.64295195 -1 5 C-0.21053391 2.31492671 -0.21053391 2.31492671 0 0 Z " fill="#0E1831" transform="translate(80,76)"/>
<path d="M0 0 C1.65 0 3.3 0 5 0 C5.66 2.64 6.32 5.28 7 8 C7.66 5.69 8.32 3.38 9 1 C8.34 0.67 7.68 0.34 7 0 C8.65 0 10.3 0 12 0 C11.67515625 1.08667969 11.67515625 1.08667969 11.34375 2.1953125 C9.23396431 9.46667314 9.23396431 9.46667314 9 17 C7.68 17 6.36 17 5 17 C4.8659375 16.28199219 4.731875 15.56398438 4.59375 14.82421875 C4.02075532 12.09872433 3.30630969 9.47735353 2.5 6.8125 C2.2421875 5.95269531 1.984375 5.09289062 1.71875 4.20703125 C1.05760363 1.99165156 1.05760363 1.99165156 0 0 Z " fill="#F9F9FA" transform="translate(190,264)"/>
<path d="M0 0 C2.5 0.125 2.5 0.125 3.5 1.125 C3.73653523 3.65096259 3.92173692 6.15607207 4.0625 8.6875 C4.10568359 9.39841797 4.14886719 10.10933594 4.19335938 10.84179688 C4.29971777 12.60261912 4.40038846 14.3637832 4.5 16.125 C2.85 15.795 1.2 15.465 -0.5 15.125 C-0.5 11.165 -0.5 7.205 -0.5 3.125 C-1.16 3.125 -1.82 3.125 -2.5 3.125 C-2.5 6.755 -2.5 10.385 -2.5 14.125 C-2.83 14.125 -3.16 14.125 -3.5 14.125 C-3.52685938 11.97923363 -3.54633088 9.83337355 -3.5625 7.6875 C-3.57410156 6.49253906 -3.58570312 5.29757812 -3.59765625 4.06640625 C-3.46840705 0.17342035 -3.46840705 0.17342035 0 0 Z " fill="#FFFFFF" transform="translate(27.5,259.875)"/>
<path d="M0 0 C0.99 0.33 1.98 0.66 3 1 C2.34 1 1.68 1 1 1 C1.01160156 1.93714844 1.02320312 2.87429687 1.03515625 3.83984375 C1.14055622 16.91108665 0.59180243 29.94414589 0 43 C1.98 43 3.96 43 6 43 C6 43.33 6 43.66 6 44 C3.69 44 1.38 44 -1 44 C-1.67609947 40.02791561 -2.02350413 36.40486199 -1.875 32.375 C-1.79300141 28.35023583 -2.85439444 26.41346339 -5 23 C-4.3125 21.125 -4.3125 21.125 -3 19 C-0.7941599 12.7717456 -0.40978962 6.56741792 0 0 Z " fill="#141A38" transform="translate(103,102)"/>
<path d="M0 0 C0.33 1.98 0.66 3.96 1 6 C-0.98 6 -2.96 6 -5 6 C-4.67 6.99 -4.34 7.98 -4 9 C-2.35 9.33 -0.7 9.66 1 10 C-2.20808915 12.1387261 -3.27698497 12.47730962 -7 12 C-9.31282587 8.53076119 -9.42478586 7.07794425 -9 3 C-6.77089201 -0.71517998 -4.03410755 -0.2689405 0 0 Z " fill="#FAFAFA" transform="translate(151,264)"/>
<path d="M0 0 C0.33 1.98 0.66 3.96 1 6 C-0.98 6 -2.96 6 -5 6 C-4.67 6.99 -4.34 7.98 -4 9 C-2.35 9.33 -0.7 9.66 1 10 C-2.20808915 12.1387261 -3.27698497 12.47730962 -7 12 C-9.31282587 8.53076119 -9.42478586 7.07794425 -9 3 C-6.77089201 -0.71517998 -4.03410755 -0.2689405 0 0 Z " fill="#E4E3E6" transform="translate(78,264)"/>
<path d="M0 0 C-0.66 1.32 -1.32 2.64 -2 4 C-1.67 4.33 -1.34 4.66 -1 5 C-0.76518307 7.18292774 -0.58636677 9.37203174 -0.4375 11.5625 C-0.35371094 12.76003906 -0.26992187 13.95757812 -0.18359375 15.19140625 C-0.12300781 16.11824219 -0.06242188 17.04507812 0 18 C-1.65 17.67 -3.3 17.34 -5 17 C-5.33 11.39 -5.66 5.78 -6 0 C-3 -1 -3 -1 0 0 Z " fill="#A19CA9" transform="translate(179,258)"/>
<path d="M0 0 C1.98 0 3.96 0 6 0 C7.10514766 3.31544299 7.32107631 6.20410111 7.5625 9.6875 C7.64628906 10.86699219 7.73007812 12.04648437 7.81640625 13.26171875 C7.87699219 14.16535156 7.93757813 15.06898438 8 16 C6.35 16 4.7 16 3 16 C3 11.71 3 7.42 3 3 C2.34 3 1.68 3 1 3 C1 6.3 1 9.6 1 13 C0.67 13 0.34 13 0 13 C0 8.71 0 4.42 0 0 Z " fill="#FCFCFC" transform="translate(16,260)"/>
<path d="M0 0 C0.33 1.98 0.66 3.96 1 6 C-0.98 6 -2.96 6 -5 6 C-4.67 6.99 -4.34 7.98 -4 9 C-2.35 9.33 -0.7 9.66 1 10 C-2.20808915 12.1387261 -3.27698497 12.47730962 -7 12 C-9.31282587 8.53076119 -9.42478586 7.07794425 -9 3 C-6.77089201 -0.71517998 -4.03410755 -0.2689405 0 0 Z " fill="#FBFAFB" transform="translate(59,237)"/>
<path d="M0 0 C0.33 1.98 0.66 3.96 1 6 C-0.98 6 -2.96 6 -5 6 C-4.67 6.99 -4.34 7.98 -4 9 C-2.35 9.33 -0.7 9.66 1 10 C-2.20808915 12.1387261 -3.27698497 12.47730962 -7 12 C-9.31282587 8.53076119 -9.42478586 7.07794425 -9 3 C-6.77089201 -0.71517998 -4.03410755 -0.2689405 0 0 Z " fill="#E4E3E6" transform="translate(36,237)"/>
<path d="M0 0 C7.71484375 -0.09765625 7.71484375 -0.09765625 10 0 C11.66342837 1.66342837 11.36048097 3.7825709 11.5625 6.0625 C11.64628906 6.98160156 11.73007813 7.90070313 11.81640625 8.84765625 C11.87699219 9.55792969 11.93757813 10.26820313 12 11 C10.68 11.33 9.36 11.66 8 12 C7.67 9.03 7.34 6.06 7 3 C6.01 2.67 5.02 2.34 4 2 C4.33 5.3 4.66 8.6 5 12 C3.68 12 2.36 12 1 12 C0.67 8.04 0.34 4.08 0 0 Z " fill="#FEFEFE" transform="translate(62,237)"/>
<path d="M0 0 C3.375 -0.125 3.375 -0.125 7 0 C9.49505962 2.49505962 9.35948376 3.67328888 9.625 7.125 C9.69976562 8.03507812 9.77453125 8.94515625 9.8515625 9.8828125 C9.90054688 10.58148438 9.94953125 11.28015625 10 12 C8.68 12 7.36 12 6 12 C5.67 10.35 5.34 8.7 5 7 C4.34 7 3.68 7 3 7 C3.33 8.32 3.66 9.64 4 11 C2.68 11 1.36 11 0 11 C-0.33 9.35 -0.66 7.7 -1 6 C0.98 6 2.96 6 5 6 C5 4.68 5 3.36 5 2 C3.35 2 1.7 2 0 2 C0 1.34 0 0.68 0 0 Z " fill="#F9F9FA" transform="translate(155,264)"/>
<path d="M0 0 C3.375 -0.125 3.375 -0.125 7 0 C9.49505962 2.49505962 9.35948376 3.67328888 9.625 7.125 C9.69976562 8.03507812 9.77453125 8.94515625 9.8515625 9.8828125 C9.90054688 10.58148438 9.94953125 11.28015625 10 12 C8.68 12 7.36 12 6 12 C5.67 10.35 5.34 8.7 5 7 C4.34 7 3.68 7 3 7 C3.33 8.32 3.66 9.64 4 11 C2.68 11 1.36 11 0 11 C-0.33 9.35 -0.66 7.7 -1 6 C0.98 6 2.96 6 5 6 C5 4.68 5 3.36 5 2 C3.35 2 1.7 2 0 2 C0 1.34 0 0.68 0 0 Z " fill="#F9F9FA" transform="translate(36,264)"/>
<path d="M0 0 C3.375 -0.125 3.375 -0.125 7 0 C9.49505962 2.49505962 9.35948376 3.67328888 9.625 7.125 C9.69976562 8.03507813 9.77453125 8.94515625 9.8515625 9.8828125 C9.90054688 10.58148438 9.94953125 11.28015625 10 12 C8.68 12 7.36 12 6 12 C5.67 10.35 5.34 8.7 5 7 C4.34 7 3.68 7 3 7 C3.33 8.32 3.66 9.64 4 11 C2.68 11 1.36 11 0 11 C-0.33 9.35 -0.66 7.7 -1 6 C0.98 6 2.96 6 5 6 C5 4.68 5 3.36 5 2 C3.35 2 1.7 2 0 2 C0 1.34 0 0.68 0 0 Z " fill="#FAFAFA" transform="translate(90,237)"/>
<path d="M0 0 C0.33 1.65 0.66 3.3 1 5 C-2.08559304 7.26881841 -3.42209376 8.05451946 -7.3125 7.6875 C-8.199375 7.460625 -9.08625 7.23375 -10 7 C-10.3125 4.6875 -10.3125 4.6875 -10 2 C-6.51622514 -0.98609274 -4.33645582 -1.36288612 0 0 Z " fill="#061528" transform="translate(104,200)"/>
<path d="M0 0 C0.928125 0.103125 1.85625 0.20625 2.8125 0.3125 C2.4825 0.9725 2.1525 1.6325 1.8125 2.3125 C0.4925 1.9825 -0.8275 1.6525 -2.1875 1.3125 C-2.1875 2.6325 -2.1875 3.9525 -2.1875 5.3125 C-1.1975 5.3125 -0.2075 5.3125 0.8125 5.3125 C0.4825 5.9725 0.1525 6.6325 -0.1875 7.3125 C-0.8475 6.9825 -1.5075 6.6525 -2.1875 6.3125 C-1.8575 10.9325 -1.5275 15.5525 -1.1875 20.3125 C-2.5075 20.6425 -3.8275 20.9725 -5.1875 21.3125 C-5.4373764 18.7505143 -5.66291116 16.19015869 -5.875 13.625 C-5.94783203 12.90376953 -6.02066406 12.18253906 -6.09570312 11.43945312 C-6.36634857 7.95290302 -6.28853203 5.5490628 -4.90625 2.3125 C-3.1875 0.3125 -3.1875 0.3125 0 0 Z " fill="#FEFEFE" transform="translate(116.1875,258.6875)"/>
<path d="M0 0 C-0.33 0.99 -0.66 1.98 -1 3 C-2.32 2.34 -3.64 1.68 -5 1 C-2.28395285 3.87420123 -2.28395285 3.87420123 1 6 C0.125 10.875 0.125 10.875 -1 12 C-3.33297433 12.04092937 -5.66705225 12.04241723 -8 12 C-7.67 10.68 -7.34 9.36 -7 8 C-6.01 8 -5.02 8 -4 8 C-4.66 7.5875 -5.32 7.175 -6 6.75 C-6.66 6.1725 -7.32 5.595 -8 5 C-8 3.68 -8 2.36 -8 1 C-5.29120665 -0.35439668 -2.99066732 -0.06501451 0 0 Z " fill="#F4F4F4" transform="translate(56,264)"/>
<path d="M0 0 C-0.33 0.99 -0.66 1.98 -1 3 C-2.32 2.34 -3.64 1.68 -5 1 C-2.28395285 3.87420123 -2.28395285 3.87420123 1 6 C0.125 10.875 0.125 10.875 -1 12 C-3.33297433 12.04092937 -5.66705225 12.04241723 -8 12 C-7.67 10.68 -7.34 9.36 -7 8 C-6.01 8 -5.02 8 -4 8 C-4.66 7.5875 -5.32 7.175 -6 6.75 C-6.66 6.1725 -7.32 5.595 -8 5 C-8 3.68 -8 2.36 -8 1 C-5.29120665 -0.35439668 -2.99066732 -0.06501451 0 0 Z " fill="#F5F4F5" transform="translate(47,237)"/>
<path d="M0 0 C1.65 0 3.3 0 5 0 C5 4.62 5 9.24 5 14 C5.66 14.33 6.32 14.66 7 15 C5.34385343 15.38218767 3.67542976 15.71395102 2 16 C0.00383446 14.00383446 0.59016573 10.18298037 0.4375 7.4375 C0.39431641 6.72658203 0.35113281 6.01566406 0.30664062 5.28320312 C0.20028223 3.52238088 0.09961154 1.7612168 0 0 Z " fill="#FFFFFF" transform="translate(124,260)"/>
<path d="M0 0 C1.65 0 3.3 0 5 0 C5 4.62 5 9.24 5 14 C5.66 14.33 6.32 14.66 7 15 C5.34385343 15.38218767 3.67542976 15.71395102 2 16 C0.00383446 14.00383446 0.59016573 10.18298037 0.4375 7.4375 C0.39431641 6.72658203 0.35113281 6.01566406 0.30664062 5.28320312 C0.20028223 3.52238088 0.09961154 1.7612168 0 0 Z " fill="#FFFFFF" transform="translate(9,260)"/>
<path d="M0 0 C1.65 0 3.3 0 5 0 C5 4.62 5 9.24 5 14 C5.66 14.33 6.32 14.66 7 15 C5.34385343 15.38218767 3.67542976 15.71395102 2 16 C0.00383446 14.00383446 0.59016573 10.18298037 0.4375 7.4375 C0.39431641 6.72658203 0.35113281 6.01566406 0.30664062 5.28320312 C0.20028223 3.52238088 0.09961154 1.7612168 0 0 Z " fill="#FFFFFF" transform="translate(9,233)"/>
<path d="M0 0 C3.3 0 6.6 0 10 0 C9.37321829 3.66172475 8.35548154 6.8818995 6.9375 10.3125 C6.57527344 11.19550781 6.21304688 12.07851563 5.83984375 12.98828125 C5.42412109 13.98408203 5.42412109 13.98408203 5 15 C3.68 15 2.36 15 1 15 C2.68673918 10.50202887 4.81673892 6.27113698 7 2 C5.35 2 3.7 2 2 2 C2 2.66 2 3.32 2 4 C1.34 4 0.68 4 0 4 C0 2.68 0 1.36 0 0 Z " fill="#FCFCFC" transform="translate(40,288)"/>
<path d="M0 0 C3.01629869 1.0054329 3.86733848 1.73467696 5.3125 4.625 C6.39417374 9.93503472 5.90482672 14.11166597 3.5625 19 C3.046875 19.66 2.53125 20.32 2 21 C1.34 21 0.68 21 0 21 C0.165 20.236875 0.33 19.47375 0.5 18.6875 C1.33521126 12.52781699 1.78098803 6.02143572 0 0 Z " fill="#F3F4F4" transform="translate(62,283)"/>
<path d="M0 0 C0 0.99 0 1.98 0 3 C0.66 3.33 1.32 3.66 2 4 C1.34 4 0.68 4 0 4 C0 6.97 0 9.94 0 13 C0.99 13 1.98 13 3 13 C3 13.66 3 14.32 3 15 C1.02 15 -0.96 15 -3 15 C-4.20272819 12.59454362 -4.10071472 11.05003047 -4.0625 8.375 C-4.05347656 7.55773437 -4.04445312 6.74046875 -4.03515625 5.8984375 C-4.02355469 5.27195312 -4.01195312 4.64546875 -4 4 C-4.66 3.67 -5.32 3.34 -6 3 C-2.25 0 -2.25 0 0 0 Z " fill="#FCFCFC" transform="translate(186,261)"/>
<path d="M0 0 C0 0.99 0 1.98 0 3 C0.66 3.33 1.32 3.66 2 4 C1.34 4 0.68 4 0 4 C0 6.97 0 9.94 0 13 C0.99 13 1.98 13 3 13 C3 13.66 3 14.32 3 15 C1.02 15 -0.96 15 -3 15 C-4.20272819 12.59454362 -4.10071472 11.05003047 -4.0625 8.375 C-4.05347656 7.55773437 -4.04445312 6.74046875 -4.03515625 5.8984375 C-4.02355469 5.27195312 -4.01195312 4.64546875 -4 4 C-4.66 3.67 -5.32 3.34 -6 3 C-2.25 0 -2.25 0 0 0 Z " fill="#FCFCFC" transform="translate(64,261)"/>
<path d="M0 0 C-0.33 0.99 -0.66 1.98 -1 3 C-1.08021999 4.40824893 -1.10765977 5.81997231 -1.09765625 7.23046875 C-1.09443359 8.03291016 -1.09121094 8.83535156 -1.08789062 9.66210938 C-1.07951172 10.49548828 -1.07113281 11.32886719 -1.0625 12.1875 C-1.05798828 13.03248047 -1.05347656 13.87746094 -1.04882812 14.74804688 C-1.03705403 16.83206155 -1.0191189 18.91603977 -1 21 C-3.66932361 18.43334268 -5.04694753 16.65336779 -6 13 C-6.00758587 8.75949964 -5.65244347 5.16305141 -3.5625 1.4375 C-2 0 -2 0 0 0 Z " fill="#FBFBFB" transform="translate(15,283)"/>
<path d="M0 0 C1.65 0 3.3 0 5 0 C5.33 5.61 5.66 11.22 6 17 C4.68 17 3.36 17 2 17 C2 11.72 2 6.44 2 1 C1.34 0.67 0.68 0.34 0 0 Z " fill="#FDFEFE" transform="translate(166,259)"/>
<path d="M0 0 C2.64752004 2.57784846 4.94432065 4.91648098 7 8 C5.35 7.67 3.7 7.34 2 7 C1.01 8.485 1.01 8.485 0 10 C0 9.34 0 8.68 0 8 C-1.98 8 -3.96 8 -6 8 C-6.33 6.68 -6.66 5.36 -7 4 C-5.02 4 -3.04 4 -1 4 C-0.67 2.68 -0.34 1.36 0 0 Z " fill="#786D84" transform="translate(38,239)"/>
<path d="M0 0 C0 3.63 0 7.26 0 11 C0.66 11 1.32 11 2 11 C2 11.66 2 12.32 2 13 C-0.31 13 -2.62 13 -5 13 C-5 12.34 -5 11.68 -5 11 C-4.34 11 -3.68 11 -3 11 C-3 8.36 -3 5.72 -3 3 C-3.99 3 -4.98 3 -6 3 C-6 2.34 -6 1.68 -6 1 C-3 0 -3 0 0 0 Z " fill="#FAFAFA" transform="translate(58,288)"/>
<path d="M0 0 C0 3.63 0 7.26 0 11 C0.66 11 1.32 11 2 11 C2 11.66 2 12.32 2 13 C-0.31 13 -2.62 13 -5 13 C-5 12.34 -5 11.68 -5 11 C-4.34 11 -3.68 11 -3 11 C-3 8.36 -3 5.72 -3 3 C-3.99 3 -4.98 3 -6 3 C-6 2.34 -6 1.68 -6 1 C-3 0 -3 0 0 0 Z " fill="#FAFAFA" transform="translate(23,288)"/>
<path d="M0 0 C0.33 0.66 0.66 1.32 1 2 C5.62 2 10.24 2 15 2 C13 4 13 4 11.12060547 4.13525391 C10.00516357 4.05670166 10.00516357 4.05670166 8.8671875 3.9765625 C8.06152344 3.925 7.25585938 3.8734375 6.42578125 3.8203125 C5.58402344 3.75585938 4.74226563 3.69140625 3.875 3.625 C3.02550781 3.56828125 2.17601563 3.5115625 1.30078125 3.453125 C-0.8001345 3.31149023 -2.90017334 3.15695674 -5 3 C-5 5.64 -5 8.28 -5 11 C-5.33 11 -5.66 11 -6 11 C-6 9.02 -6 7.04 -6 5 C-9.3 5 -12.6 5 -16 5 C-16 4.34 -16 3.68 -16 3 C-8.08 2.505 -8.08 2.505 0 2 C0 1.34 0 0.68 0 0 Z " fill="#1A1A3E" transform="translate(69,146)"/>
<path d="M0 0 C2.31 0 4.62 0 7 0 C7 0.99 7 1.98 7 3 C5.02 3 3.04 3 1 3 C1 4.32 1 5.64 1 7 C-1.31 7 -3.62 7 -6 7 C-6.33 5.68 -6.66 4.36 -7 3 C-4.69 3 -2.38 3 0 3 C0 2.01 0 1.02 0 0 Z " fill="#585E62" transform="translate(153,267)"/>
<path d="M0 0 C2.475 0.495 2.475 0.495 5 1 C7.23167185 0.63143136 7.23167185 0.63143136 9 0 C8.67 0.99 8.34 1.98 8 3 C6.68 3 5.36 3 4 3 C4 5.31 4 7.62 4 10 C4.66 10.33 5.32 10.66 6 11 C4.35 11.33 2.7 11.66 1 12 C0.67 8.04 0.34 4.08 0 0 Z " fill="#FDFDFD" transform="translate(81,264)"/>
<path d="M0 0 C0.66 0.33 1.32 0.66 2 1 C2 3.64 2 6.28 2 9 C2.66 9.33 3.32 9.66 4 10 C4 10.66 4 11.32 4 12 C1.0625 11.625 1.0625 11.625 -2 11 C-3.39935013 8.20129973 -3.25265405 6.09501208 -3 3 C-1.5 1.125 -1.5 1.125 0 0 Z " fill="#F6F7F7" transform="translate(99,264)"/>
<path d="M0 0 C1.32 0 2.64 0 4 0 C4.07654536 4.51617599 4.10228696 8.59085217 3 13 C2.01 13 1.02 13 0 13 C-1.36421031 10.27157939 -0.87807211 8.39046682 -0.5625 5.375 C-0.40974609 3.87066406 -0.40974609 3.87066406 -0.25390625 2.3359375 C-0.17011719 1.56507812 -0.08632812 0.79421875 0 0 Z " fill="#0B172E" transform="translate(211,124)"/>
<path d="M0 0 C1.60080151 4.00200378 0.29279692 7.04556236 -1 11 C-7.435 11.495 -7.435 11.495 -14 12 C-14 11.01 -14 10.02 -14 9 C-9.71 9 -5.42 9 -1 9 C-1.33 6.69 -1.66 4.38 -2 2 C-1.34 2 -0.68 2 0 2 C0 1.34 0 0.68 0 0 Z " fill="#161B3A" transform="translate(174,129)"/>
<path d="M0 0 C1.32 0 2.64 0 4 0 C4.33 3.96 4.66 7.92 5 12 C3.68 12 2.36 12 1 12 C0.67 8.04 0.34 4.08 0 0 Z " fill="#FDFDFD" transform="translate(174,264)"/>
<path d="M0 0 C0.33 0 0.66 0 1 0 C1.02705729 1.77074917 1.04642195 3.54161711 1.0625 5.3125 C1.07410156 6.29863281 1.08570313 7.28476563 1.09765625 8.30078125 C1 11 1 11 0 14 C1.32 14.33 2.64 14.66 4 15 C2.35 15 0.7 15 -1 15 C-2.125 9.375 -2.125 9.375 -1 6 C-4.3 6 -7.6 6 -11 6 C-11 5.67 -11 5.34 -11 5 C-7.37 5 -3.74 5 0 5 C0 3.35 0 1.7 0 0 Z " fill="#171A3C" transform="translate(186,166)"/>
<path d="M0 0 C1.32 0.33 2.64 0.66 4 1 C4 3.97 4 6.94 4 10 C3.01 10 2.02 10 1 10 C-0.60725635 6.78548731 -0.05748185 3.56387464 0 0 Z " fill="#837E8D" transform="translate(66,239)"/>
<path d="M0 0 C1.98 0 3.96 0 6 0 C6 1.98 6 3.96 6 6 C3.59454362 7.20272819 2.05003047 7.10071472 -0.625 7.0625 C-1.85089844 7.04896484 -1.85089844 7.04896484 -3.1015625 7.03515625 C-4.04128906 7.01775391 -4.04128906 7.01775391 -5 7 C-5 6.67 -5 6.34 -5 6 C-2.36 6 0.28 6 3 6 C3 5.34 3 4.68 3 4 C2.34 4 1.68 4 1 4 C0.67 2.68 0.34 1.36 0 0 Z " fill="#573684" transform="translate(141,186)"/>
<path d="M0 0 C0.66 0 1.32 0 2 0 C2 0.66 2 1.32 2 2 C2.78375 2.268125 3.5675 2.53625 4.375 2.8125 C7 4 7 4 9 7 C7.35 6.67 5.7 6.34 4 6 C3.01 7.485 3.01 7.485 2 9 C0 7 0 7 -0.125 3.375 C-0.08375 2.26125 -0.0425 1.1475 0 0 Z " fill="#5E6468" transform="translate(45,267)"/>
<path d="M0 0 C0.99 0 1.98 0 3 0 C3.33 2.64 3.66 5.28 4 8 C3.01 8.33 2.02 8.66 1 9 C-0.625 6.75 -0.625 6.75 -2 4 C-1.1875 1.6875 -1.1875 1.6875 0 0 Z " fill="#51575B" transform="translate(139,267)"/>
<path d="M0 0 C1.32 0 2.64 0 4 0 C4.33 2.64 4.66 5.28 5 8 C4.01 8.33 3.02 8.66 2 9 C-0.29013653 5.5647952 -0.17842973 4.014669 0 0 Z " fill="#4C5357" transform="translate(65,267)"/>
<path d="M0 0 C0.99 0 1.98 0 3 0 C3 4.29 3 8.58 3 13 C2.67 12.01 2.34 11.02 2 10 C1.34 9.67 0.68 9.34 0 9 C0 6.03 0 3.06 0 0 Z " fill="#666A70" transform="translate(80,239)"/>
<path d="M0 0 C1.32 0 2.64 0 4 0 C4.33 1.98 4.66 3.96 5 6 C2.03 5.505 2.03 5.505 -1 5 C-0.67 3.35 -0.34 1.7 0 0 Z " fill="#CBCCCE" transform="translate(147,264)"/>
<path d="M0 0 C1.32 0 2.64 0 4 0 C4.33 1.98 4.66 3.96 5 6 C2.03 5.505 2.03 5.505 -1 5 C-0.67 3.35 -0.34 1.7 0 0 Z " fill="#D3CFD7" transform="translate(55,237)"/>
<path d="M0 0 C0.66 0 1.32 0 2 0 C2.33 2.64 2.66 5.28 3 8 C2.01 8.495 2.01 8.495 1 9 C-0.5625 7.8125 -0.5625 7.8125 -2 6 C-1.57894737 1.57894737 -1.57894737 1.57894737 0 0 Z " fill="#FBFBFB" transform="translate(29,289)"/>
<path d="M0 0 C0.33 0 0.66 0 1 0 C1.33 2.31 1.66 4.62 2 7 C2.99 6.34 3.98 5.68 5 5 C4.46835452 9.78480933 3.76888381 10.23111619 0 14 C0 9.38 0 4.76 0 0 Z " fill="#111A34" transform="translate(65,172)"/>
<path d="M0 0 C0.6875 1.6875 0.6875 1.6875 1 4 C-0.25 6.5625 -0.25 6.5625 -2 9 C-2.4125 9.598125 -2.825 10.19625 -3.25 10.8125 C-6.03476181 12.7021598 -8.74068562 12.18448949 -12 12 C-9.80652435 10.21272354 -8.17745569 9.05193825 -5.4375 8.25 C-1.75193738 6.35996789 -1.34995828 3.83672354 0 0 Z " fill="#101734" transform="translate(103,94)"/>
<path d="M0 0 C0.66 0.33 1.32 0.66 2 1 C1.01 5.29 0.02 9.58 -1 14 C-2.32 13.34 -3.64 12.68 -5 12 C-3.79618552 9.50638429 -2.54571278 7.31856917 -1 5 C-0.61500109 3.34450469 -0.27206865 1.6777567 0 0 Z " fill="#181B3C" transform="translate(80,76)"/>
<path d="M0 0 C0.33 0 0.66 0 1 0 C1 3.3 1 6.6 1 10 C-0.65 10 -2.3 10 -4 10 C-2.68 6.7 -1.36 3.4 0 0 Z " fill="#09162A" transform="translate(120,204)"/>
<path d="M0 0 C0.99 0 1.98 0 3 0 C3 2.97 3 5.94 3 9 C2.01 8.67 1.02 8.34 0 8 C0 5.36 0 2.72 0 0 Z " fill="#53595D" transform="translate(100,265)"/>
<path d="M0 0 C0 1.32 0 2.64 0 4 C-2.475 3.01 -2.475 3.01 -5 2 C-5.66 2.66 -6.32 3.32 -7 4 C-7 2.68 -7 1.36 -7 0 C-4.3333581 -1.33332095 -2.83319697 -0.67102033 0 0 Z " fill="#0F1833" transform="translate(113,169)"/>
<path d="M0 0 C1.32 0.33 2.64 0.66 4 1 C3.74438677 3.3431213 3.40729228 5.67843403 3 8 C2.01 8.495 2.01 8.495 1 9 C0.67 6.03 0.34 3.06 0 0 Z " fill="#6E7477" transform="translate(195,264)"/>
<path d="M0 0 C1.32 0 2.64 0 4 0 C4.33 1.98 4.66 3.96 5 6 C3.68 5.67 2.36 5.34 1 5 C0.67 3.35 0.34 1.7 0 0 Z " fill="#FBFBFB" transform="translate(74,264)"/>
<path d="M0 0 C1.32 0 2.64 0 4 0 C4.33 1.98 4.66 3.96 5 6 C3.68 5.67 2.36 5.34 1 5 C0.67 3.35 0.34 1.7 0 0 Z " fill="#FBFBFC" transform="translate(32,237)"/>
<path d="M0 0 C4.875 4.75 4.875 4.75 6 7 C4.68 7.33 3.36 7.66 2 8 C0.74335022 5.09399739 0 3.20395416 0 0 Z " fill="#0C162F" transform="translate(140,89)"/>
<path d="M0 0 C0.99 0.33 1.98 0.66 3 1 C3 2.65 3 4.3 3 6 C2.01 6 1.02 6 0 6 C0 4.02 0 2.04 0 0 Z " fill="#80748B" transform="translate(132,261)"/>
<path d="M0 0 C0.99 0.33 1.98 0.66 3 1 C3 2.65 3 4.3 3 6 C2.01 6 1.02 6 0 6 C0 4.02 0 2.04 0 0 Z " fill="#81748D" transform="translate(17,234)"/>
<path d="M0 0 C1.32 0.33 2.64 0.66 4 1 C3.39816251 3.02045442 2.72693904 5.02111039 2 7 C1.01 7.495 1.01 7.495 0 8 C0 5.36 0 2.72 0 0 Z " fill="#0B152E" transform="translate(182,53)"/>
<path d="M0 0 C0.99 0 1.98 0 3 0 C3 1.65 3 3.3 3 5 C2.01 5.33 1.02 5.66 0 6 C0 4.02 0 2.04 0 0 Z " fill="#74797C" transform="translate(31,290)"/>
<path d="M0 0 C2.62386487 3.06117568 3 3.73173127 3 8 C1.68 7.67 0.36 7.34 -1 7 C-0.67 4.69 -0.34 2.38 0 0 Z " fill="#533380" transform="translate(196,102)"/>
</svg>
